<?xml version="1.0" standalone="no"?>
<!DOCTYPE svg PUBLIC "-//W3C//DTD SVG 20010904//EN"
 "http://www.w3.org/TR/2001/REC-SVG-20010904/DTD/svg10.dtd">
<svg version="1.0" xmlns="http://www.w3.org/2000/svg"
 width="2520.000000pt" height="2520.000000pt" viewBox="0 0 2520.000000 2520.000000"
 preserveAspectRatio="xMidYMid meet">
<metadata>
Created by potrace 1.11, written by Peter Selinger 2001-2013
</metadata>
<g transform="translate(0.000000,2520.000000) scale(0.100000,-0.100000)"
fill="#000000" stroke="none">
<path d="M8517 15363 c-1 0 -36 -4 -77 -7 -116 -9 -183 -15 -210 -21 -14 -3
-45 -8 -70 -11 -47 -6 -72 -10 -105 -18 -11 -2 -54 -12 -95 -21 -186 -41 -424
-127 -629 -227 -106 -51 -264 -140 -281 -158 -3 -3 -25 -18 -50 -35 -217 -143
-430 -370 -565 -600 -57 -98 -153 -309 -170 -375 -2 -8 -13 -45 -24 -82 -11
-38 -17 -68 -14 -68 3 0 0 -6 -6 -13 -6 -8 -8 -16 -6 -19 3 -3 1 -16 -4 -29
-4 -13 -11 -49 -15 -79 -4 -30 -9 -68 -12 -83 -13 -72 -19 -341 -10 -432 23
-230 84 -450 178 -644 27 -54 138 -244 148 -251 3 -3 9 -12 12 -20 13 -32 156
-200 257 -301 58 -58 156 -143 216 -188 61 -46 118 -89 128 -97 9 -8 20 -14
24 -14 3 0 29 -15 57 -34 110 -72 317 -171 501 -239 70 -26 267 -84 315 -93
14 -2 48 -9 75 -14 50 -10 68 -13 155 -26 241 -36 580 -36 820 0 123 19 135
21 255 50 139 33 248 67 375 117 l109 43 3 74 c2 41 0 78 -3 84 -4 6 -21 3
-44 -6 -21 -9 -47 -18 -59 -20 -11 -3 -46 -11 -76 -20 -79 -21 -173 -37 -305
-51 -28 -4 -167 -14 -265 -20 -66 -5 -367 -5 -425 -1 -120 9 -197 21 -379 61
-14 3 -89 25 -136 40 -70 22 -171 65 -278 117 -198 97 -313 180 -469 336 -159
159 -288 343 -392 557 -49 102 -131 316 -146 381 -46 210 -57 298 -60 480 -3
223 33 440 100 605 13 32 20 60 17 63 -3 3 0 6 6 6 7 0 12 5 12 11 0 18 68
156 118 239 62 103 137 202 213 284 70 75 242 223 274 236 11 4 29 16 40 27
25 22 53 38 169 98 162 85 383 162 515 180 18 3 36 7 40 9 13 8 160 19 261 20
99 0 194 -7 250 -20 14 -3 36 -7 50 -10 55 -10 189 -59 265 -96 76 -37 194
-104 205 -117 3 -3 32 -26 64 -51 81 -61 172 -151 237 -235 85 -110 99 -132
172 -267 11 -21 22 -36 25 -34 2 3 4 196 5 430 l2 426 -25 10 c-31 12 -293 79
-340 86 -19 3 -44 8 -55 11 -23 8 -34 10 -90 18 -22 3 -49 7 -60 9 -11 2 -49
7 -85 11 -36 4 -72 9 -81 10 -60 11 -543 27 -552 18z"/>
<path d="M11055 15360 c-27 -3 -273 -5 -546 -5 -343 1 -495 -2 -492 -10 4 -10
153 -133 280 -232 l61 -48 1 -1959 c0 -1077 3 -1961 6 -1964 9 -9 556 -10 580
-1 20 7 20 16 20 1967 l0 1960 65 16 c68 16 224 48 250 51 26 3 114 17 140 21
136 23 411 22 570 -2 124 -18 286 -58 308 -76 6 -6 12 -8 12 -5 0 9 140 -62
189 -96 101 -69 186 -169 206 -242 4 -16 10 -37 13 -45 19 -64 3 -200 -34
-285 -36 -85 -143 -182 -264 -238 -41 -18 -228 -73 -280 -81 -19 -3 -44 -7
-55 -10 -11 -2 -45 -7 -75 -10 -30 -4 -71 -9 -90 -11 -41 -6 -278 -16 -335
-15 -22 0 -111 1 -198 3 l-159 2 0 -88 c-1 -48 1 -90 4 -92 3 -3 27 -7 54 -10
203 -22 285 -41 429 -97 137 -53 263 -131 351 -214 47 -46 164 -187 164 -198
0 -3 16 -31 35 -61 35 -53 115 -213 128 -251 4 -11 13 -37 22 -59 41 -106 111
-343 131 -445 3 -14 13 -57 24 -96 10 -39 21 -81 24 -95 3 -13 12 -53 21 -89
9 -35 18 -74 20 -85 2 -11 4 -21 6 -22 1 -2 2 -6 3 -10 12 -45 28 -101 33
-113 3 -8 7 -21 9 -28 1 -8 6 -21 10 -30 4 -9 8 -19 9 -22 5 -23 40 -122 53
-150 102 -236 191 -368 313 -465 132 -105 334 -174 519 -179 l45 -1 1 89 c0
54 -4 89 -10 91 -6 2 -33 9 -59 15 -135 35 -234 219 -280 515 -3 17 -8 37 -11
45 -3 8 -7 31 -10 50 -5 34 -20 110 -31 160 -3 14 -7 41 -10 60 -2 19 -9 60
-15 90 -6 30 -13 71 -16 90 -5 37 -30 184 -40 235 -3 17 -12 57 -21 90 -8 33
-17 68 -18 77 -8 37 -78 236 -103 288 -14 30 -26 57 -26 60 -2 15 -87 167
-134 240 -48 74 -166 204 -228 250 -48 36 -84 60 -88 60 -3 0 -26 13 -51 29
-39 24 -105 53 -220 97 -32 11 -49 16 -130 33 -87 19 -87 19 -119 20 -43 1
-24 13 26 17 88 6 174 14 198 18 14 3 49 7 79 10 30 4 64 9 75 11 12 3 32 7
46 9 14 2 48 10 75 16 28 6 61 14 75 16 50 9 217 67 287 99 179 83 323 208
396 343 63 118 59 329 -10 466 -83 165 -233 275 -498 365 -82 27 -230 68 -280
76 -11 2 -49 9 -85 15 -177 32 -331 44 -855 66 -180 8 -434 10 -490 4z"/>
<path d="M18801 15361 c-9 -6 -4 -15 21 -32 18 -13 38 -28 43 -35 6 -6 48 -42
95 -80 47 -38 94 -77 105 -87 11 -10 34 -27 51 -38 l32 -19 0 -1963 -1 -1962
297 -3 296 -2 0 202 c0 112 0 728 0 1371 l0 1167 198 1 c108 0 204 0 212 0 8
0 227 0 485 0 259 0 478 0 487 0 22 0 24 10 23 104 l0 80 -420 2 c-231 1 -547
3 -702 3 l-283 0 0 563 0 563 623 -2 c342 -1 631 -4 642 -8 11 -3 36 -9 55
-14 60 -15 163 -67 220 -112 138 -108 244 -255 334 -465 10 -22 23 -49 29 -60
6 -11 18 -45 28 -75 l18 -55 1 40 c1 22 2 237 3 477 l2 438 -45 1 c-25 0 -94
0 -155 -1 -60 0 -117 -1 -125 -1 -8 0 -76 0 -150 0 -74 0 -142 0 -150 1 -8 0
-44 0 -80 -1 -36 0 -72 0 -80 0 -8 0 -188 0 -400 0 -212 0 -392 0 -400 1 -8 0
-44 0 -80 -1 -36 0 -72 0 -80 0 -11 0 -332 1 -500 0 -162 0 -288 0 -300 1 -8
0 -44 0 -80 -1 -36 0 -72 0 -80 0 -56 3 -144 1 -148 -4 -3 -2 -10 -1 -16 5 -7
5 -18 5 -25 1z"/>
<path d="M30 15350 c0 -3 21 -22 48 -43 26 -20 61 -48 77 -62 58 -51 70 -61
110 -90 22 -17 55 -43 73 -60 l33 -29 -6 -186 c-3 -102 -8 -241 -10 -310 -3
-69 -7 -195 -10 -280 -7 -252 -15 -496 -21 -635 -2 -71 -6 -197 -9 -280 -2
-82 -7 -215 -10 -295 -3 -80 -7 -219 -10 -310 -3 -91 -8 -223 -10 -295 -3 -71
-7 -200 -10 -285 -2 -85 -7 -213 -10 -285 -9 -246 -17 -530 -19 -650 l-1 -120
128 -3 c70 -1 128 1 128 5 4 20 10 167 24 613 2 63 7 192 10 285 3 94 8 229
10 300 3 72 7 200 10 285 3 85 7 222 10 304 5 152 11 349 20 601 3 77 7 208
10 290 3 83 8 220 11 305 3 85 7 207 9 270 5 164 5 170 14 145 3 -11 26 -60
50 -110 24 -49 66 -137 93 -195 28 -58 77 -161 111 -230 33 -69 83 -174 112
-235 83 -174 230 -479 415 -860 45 -93 111 -228 145 -300 74 -154 199 -414
246 -511 19 -38 34 -72 34 -76 0 -4 6 -13 13 -19 6 -7 12 -21 12 -31 0 -10 5
-18 10 -18 6 0 10 -5 10 -11 0 -5 31 -74 69 -152 37 -78 87 -182 111 -232 88
-186 161 -341 178 -377 9 -21 20 -38 24 -38 5 0 18 27 23 50 1 3 23 50 49 105
26 55 51 109 56 120 5 11 31 68 59 128 28 59 51 109 51 112 0 2 22 50 49 107
27 57 62 132 79 168 30 65 76 163 170 363 28 59 51 110 51 112 1 3 15 33 33
68 18 34 33 64 33 67 1 3 20 43 42 90 116 242 161 338 225 470 39 80 85 177
103 215 18 39 72 151 120 250 48 99 111 230 140 290 29 61 94 194 144 298 50
103 91 192 91 197 0 6 5 10 10 10 6 0 10 6 10 13 0 20 77 170 83 160 2 -4 5
-41 6 -82 1 -40 3 -76 5 -80 3 -4 7 -65 11 -136 4 -72 8 -148 10 -170 1 -22 6
-87 9 -145 4 -58 8 -132 11 -165 5 -69 14 -205 20 -320 2 -44 5 -80 5 -80 1 0
3 -29 5 -65 2 -36 7 -107 10 -159 6 -90 9 -132 20 -306 2 -44 7 -114 10 -155
2 -41 7 -118 10 -170 3 -52 7 -122 10 -155 3 -33 7 -98 10 -145 3 -47 7 -110
9 -140 5 -55 13 -186 21 -330 6 -99 15 -231 20 -300 2 -30 7 -107 10 -170 4
-63 9 -118 11 -122 3 -5 138 -8 300 -8 l294 0 1 23 c1 12 1 24 1 27 -4 49 -14
192 -17 250 -4 70 -9 150 -21 310 -2 36 -6 103 -9 150 -3 47 -8 123 -11 170
-3 47 -7 110 -9 140 -1 30 -6 93 -9 140 -4 47 -9 122 -11 166 -2 45 -7 117
-10 160 -3 44 -8 115 -10 159 -3 44 -7 109 -10 145 -13 185 -21 305 -30 450
-2 30 -6 100 -10 155 -3 55 -8 131 -10 170 -3 38 -7 106 -10 150 -3 44 -7 116
-10 160 -10 156 -16 241 -21 310 -3 39 -7 102 -9 140 -2 39 -6 108 -9 155 -3
47 -8 114 -10 150 -2 36 -7 110 -11 166 l-7 100 99 74 c54 40 100 77 101 82 2
4 10 8 17 8 7 0 15 3 17 8 2 4 23 23 48 42 93 72 126 66 -344 66 l-422 0 -53
-111 c-29 -60 -84 -173 -121 -250 -37 -77 -83 -174 -103 -215 -19 -41 -81
-169 -137 -285 -56 -115 -122 -250 -145 -300 -24 -49 -70 -147 -104 -218 -33
-70 -61 -132 -61 -137 0 -6 -5 -10 -10 -10 -6 0 -9 -3 -8 -7 1 -5 -21 -55 -49
-113 -297 -615 -333 -691 -333 -701 0 -5 -4 -9 -10 -9 -5 0 -9 -3 -8 -7 2 -9
-10 -35 -142 -308 -101 -208 -189 -394 -223 -467 -24 -51 -34 -58 -44 -30 -3
9 -35 78 -71 152 -35 74 -88 185 -117 245 -87 182 -173 362 -240 500 -34 72
-87 182 -118 245 -96 201 -158 331 -230 480 -72 151 -135 282 -232 485 -31 66
-83 174 -115 240 -32 66 -76 158 -98 205 -57 122 -216 452 -260 540 l-37 75
-432 0 c-238 0 -433 -2 -433 -5z"/>
<path d="M5052 15325 c39 -35 264 -218 293 -239 19 -14 19 -37 21 -1977 1
-1080 2 -1966 3 -1969 0 -3 134 -5 296 -5 288 0 294 0 294 20 0 11 1 107 1
213 1 105 -2 197 -5 202 -3 6 -3 10 2 10 4 0 7 51 6 113 -4 173 -4 199 0 204
3 2 1 19 -3 38 -4 19 -5 37 -2 40 3 3 5 43 3 88 -3 92 -3 85 -1 152 1 28 1 55
0 60 -1 6 -2 15 -1 20 1 6 2 80 1 165 -1 201 -1 243 4 248 2 2 0 16 -4 32 -4
16 -6 31 -3 34 3 3 4 114 3 248 -1 266 -1 321 5 326 2 2 -1 16 -5 32 -4 16 -6
31 -3 34 3 3 5 79 4 168 -2 194 -2 172 -1 233 1 28 1 55 0 60 -1 6 -1 15 0 20
1 6 1 46 0 90 -2 92 -2 84 0 150 1 28 1 55 0 60 -1 6 -1 15 0 20 4 22 0 227
-5 236 -4 5 -3 9 2 9 4 0 7 89 5 197 -3 237 -3 285 2 291 2 2 0 16 -4 32 -4
16 -6 31 -3 34 7 7 10 336 3 337 -3 1 -216 2 -474 3 l-468 2 34 -31z"/>
<path d="M16077 15354 c-1 -1 -44 -4 -94 -8 -325 -22 -658 -115 -958 -268 -33
-17 -73 -38 -90 -46 -34 -17 -247 -153 -255 -162 -3 -3 -34 -28 -70 -55 -60
-45 -285 -263 -320 -311 -8 -11 -32 -40 -52 -66 -21 -25 -38 -51 -38 -56 0 -6
-4 -12 -8 -14 -11 -4 -89 -124 -129 -198 -16 -30 -35 -64 -41 -75 -58 -102
-145 -367 -168 -510 -2 -16 -6 -39 -9 -50 -24 -115 -25 -440 0 -580 18 -108
29 -154 41 -187 8 -21 12 -38 9 -38 -9 0 68 -207 110 -298 38 -80 132 -246
157 -277 5 -5 38 -50 75 -100 85 -115 353 -385 382 -385 5 0 11 -3 13 -8 5
-11 167 -127 223 -158 11 -6 49 -28 84 -48 60 -34 136 -72 251 -123 120 -54
413 -141 530 -158 25 -3 52 -8 61 -11 9 -2 36 -6 60 -8 24 -2 71 -8 104 -12
81 -10 410 -11 510 -1 44 5 97 10 119 12 48 5 231 41 311 61 164 42 418 142
545 214 14 8 27 15 30 15 17 4 274 168 294 188 7 7 25 21 41 32 93 67 280 254
373 374 84 108 230 342 237 381 0 3 9 19 18 37 9 18 17 39 17 47 0 8 3 16 8
18 7 3 66 167 77 213 20 87 37 165 41 190 19 129 22 183 19 355 -4 188 -6 224
-22 300 -4 19 -8 42 -9 50 -1 8 -9 44 -19 80 -9 36 -19 73 -20 83 -2 9 -7 23
-12 30 -4 6 -9 18 -10 25 -5 21 -10 36 -18 57 -123 310 -272 535 -505 763
-104 102 -333 282 -360 282 -5 0 -10 5 -10 10 0 6 -4 10 -9 10 -5 0 -39 18
-76 41 -37 22 -74 43 -83 46 -10 3 -24 11 -32 18 -8 6 -40 22 -70 35 -30 12
-77 33 -105 45 -90 40 -158 64 -280 99 -115 33 -145 40 -207 51 -16 3 -39 7
-53 10 -63 13 -93 17 -231 31 -57 6 -372 13 -377 8z m373 -198 c157 -20 310
-59 443 -113 97 -39 212 -97 238 -119 8 -8 19 -14 23 -14 19 0 171 -124 253
-207 215 -216 461 -675 539 -1003 43 -178 52 -269 49 -470 -2 -102 -6 -196 -9
-210 -3 -14 -7 -45 -10 -70 -6 -54 -41 -224 -62 -300 -8 -30 -17 -62 -19 -70
-2 -8 -4 -15 -5 -15 -1 0 -3 -10 -6 -22 -6 -36 -80 -226 -117 -305 -81 -170
-222 -346 -386 -481 -84 -70 -207 -157 -221 -157 -5 0 -15 -6 -22 -13 -45 -45
-357 -167 -498 -194 -14 -3 -29 -6 -35 -7 -12 -3 -70 -14 -110 -21 -114 -20
-403 -26 -523 -12 -103 12 -257 45 -307 66 -22 9 -84 31 -100 35 -64 18 -233
107 -344 181 -87 57 -331 295 -331 321 0 3 -18 28 -39 57 -47 62 -146 227
-197 329 -75 149 -167 401 -190 522 -2 11 -6 32 -9 46 -21 109 -28 187 -28
325 -1 115 6 219 18 295 3 19 11 61 16 93 6 32 12 70 14 85 3 22 32 140 60
242 2 8 19 58 38 110 116 322 279 544 552 751 70 53 190 129 204 129 5 0 11 3
13 8 5 11 210 102 268 118 93 26 244 63 280 69 25 3 56 8 70 10 14 2 57 7 95
10 39 4 71 8 73 9 5 5 270 -1 322 -8z"/>
<path d="M21899 15350 c-3 -14 -5 -136 -2 -145 2 -7 232 -10 663 -10 l660 0 0
-2030 0 -2030 293 1 c160 1 294 2 297 3 3 0 5 912 4 2025 -1 1475 2 2026 10
2029 6 2 310 3 676 3 l665 -1 5 24 c3 14 3 50 0 80 l-5 56 -1632 0 c-898 1
-1634 -2 -1634 -5z"/>
<path d="M2690 10782 l-856 -2 4 -40 4 -40 11518 0 11518 0 4 23 c2 12 2 30 0
40 -3 16 -47 17 -750 17 -411 0 -5211 1 -10667 3 -5456 1 -10305 1 -10775 -1z"/>
<path d="M1858 10422 c-10 -2 -18 -11 -18 -20 -5 -217 -5 -220 11 -219 14 1
16 14 14 89 -1 48 1 85 6 83 4 -3 27 -44 51 -90 l43 -85 15 32 c8 18 17 35 20
38 3 3 18 31 33 63 16 31 31 57 33 57 2 0 3 -43 2 -95 -3 -80 -1 -95 12 -95
14 0 16 19 17 120 0 116 -1 120 -21 119 -16 0 -30 -19 -61 -84 -22 -47 -43
-85 -47 -85 -4 0 -22 30 -40 68 -18 37 -37 70 -41 73 -5 3 -8 9 -7 13 3 14 -6
22 -22 18z"/>
<path d="M2358 10424 c-3 -3 -48 -5 -99 -5 l-94 0 0 -117 0 -117 103 -1 c70
-1 102 2 102 10 0 8 -28 11 -85 10 -47 0 -85 3 -86 8 0 4 -1 22 -1 38 0 17 1
34 1 39 1 4 26 8 58 7 46 -1 57 2 59 16 2 14 -2 16 -14 9 -10 -4 -37 -7 -62
-7 -44 2 -45 2 -48 38 -2 28 1 38 15 42 28 8 126 9 146 1 13 -5 17 -2 17 14 0
22 -3 25 -12 15z"/>
<path d="M3031 10409 c-111 -49 -104 -196 10 -226 62 -17 120 -1 167 45 17 15
27 81 18 116 -8 33 -70 74 -118 79 -22 3 -53 -3 -77 -14z m119 -24 c26 -14 56
-59 55 -85 -1 -33 -28 -79 -53 -89 -71 -29 -142 -7 -167 52 -19 46 5 110 50
127 31 12 87 9 115 -5z"/>
<path d="M3294 10419 c-11 -18 -7 -230 5 -242 12 -12 13 -9 16 48 2 22 3 45 4
51 1 9 15 10 76 5 6 -1 24 -23 40 -50 32 -53 72 -78 59 -38 -4 12 -10 24 -14
27 -4 3 -15 19 -24 37 -15 31 -15 32 7 39 74 23 52 117 -29 122 -20 2 -41 5
-45 8 -4 2 -10 0 -13 -5 -3 -5 -21 -5 -41 -1 -20 4 -38 4 -41 -1z m173 -46
c13 -19 12 -24 -5 -41 -15 -15 -34 -19 -85 -20 -71 0 -77 4 -69 60 4 24 9 27
51 30 62 4 91 -4 108 -29z"/>
<path d="M3685 10421 c-19 -6 -20 -15 -20 -124 0 -97 3 -117 15 -117 12 0 15
17 13 102 l-2 103 32 -35 c72 -81 122 -143 125 -156 2 -8 13 -14 25 -14 21 0
22 3 22 120 0 100 -2 120 -14 118 -12 -2 -15 -22 -13 -95 l1 -91 -22 22 c-12
12 -40 45 -62 72 -22 27 -48 55 -57 62 -10 7 -16 17 -13 22 8 12 -7 18 -30 11z"/>
<path d="M5316 10423 c-4 -5 -53 -8 -109 -8 -61 0 -102 -4 -102 -10 0 -5 20
-10 45 -10 l45 0 0 -107 c-1 -94 2 -108 16 -108 14 0 16 13 14 98 -1 53 0 102
2 109 3 8 21 11 54 8 44 -4 49 -2 49 15 0 22 -3 24 -14 13z"/>
<path d="M5559 10425 c-4 -3 -49 -6 -100 -6 l-94 0 2 -102 c1 -56 2 -109 2
-118 1 -13 16 -16 101 -15 68 0 100 4 100 11 0 8 -26 11 -80 10 -47 -1 -84 3
-87 9 -4 5 -7 27 -8 48 l-2 37 56 -3 c64 -4 72 -1 64 20 -3 9 -10 11 -17 6 -6
-5 -31 -8 -56 -7 l-45 1 0 39 0 40 68 5 c38 3 75 1 83 -3 19 -11 27 -4 22 18
-1 9 -6 14 -9 10z"/>
<path d="M6576 10421 c-3 -4 -18 -6 -33 -5 -27 2 -29 -1 -26 -30 4 -33 4 -109
0 -166 l-2 -35 110 -1 c60 -1 104 0 97 3 -6 3 -10 8 -8 12 3 4 -33 6 -79 6
l-83 -2 -4 39 c-2 21 -1 43 2 47 3 5 31 8 63 6 41 -1 57 2 57 12 0 9 -12 12
-40 10 -22 -2 -40 1 -40 6 0 5 -6 4 -13 -2 -19 -15 -27 -4 -27 41 l0 39 85 -3
c72 -3 85 -1 85 13 0 13 -8 14 -49 9 -27 -3 -58 -3 -70 1 -11 5 -22 5 -25 0z"/>
<path d="M6784 10415 c-3 -7 -6 -63 -7 -124 -2 -94 0 -111 14 -111 13 0 15 15
14 93 -1 50 0 95 2 100 5 9 159 -173 156 -184 -2 -5 7 -9 20 -9 22 0 22 2 22
120 0 90 -3 120 -12 120 -10 0 -13 -26 -13 -97 0 -54 -4 -93 -8 -87 -4 7 -32
40 -62 74 -30 34 -62 74 -70 88 -17 29 -48 38 -56 17z"/>
<path d="M7142 10422 c-74 -22 -109 -121 -66 -187 22 -34 86 -59 138 -53 55 7
112 44 96 63 -9 11 -16 8 -35 -11 -13 -13 -30 -24 -37 -25 -77 -6 -83 -5 -115
27 -90 88 14 205 137 154 16 -7 30 -17 30 -22 0 -6 7 -5 15 2 16 13 21 45 6
36 -5 -4 -22 -1 -38 5 -34 14 -100 20 -131 11z"/>
<path d="M7515 10422 c-1 -2 -32 -3 -67 -3 l-64 0 1 -117 0 -117 93 0 c50 0
92 -3 92 -8 0 -4 4 -6 10 -2 5 3 7 11 4 19 -3 9 -28 12 -87 12 l-82 -1 -3 46
-3 46 61 -2 c54 -2 60 0 60 18 0 14 -4 17 -12 10 -7 -5 -33 -9 -58 -9 l-45 1
-2 42 -2 41 66 1 c36 0 68 3 71 6 3 3 11 0 17 -5 9 -8 14 -5 17 8 4 15 -1 18
-29 18 -19 -1 -36 -2 -38 -4z"/>
<path d="M8155 10419 c-64 -18 -92 -66 -82 -139 12 -89 120 -126 221 -76 42
20 46 25 31 34 -14 7 -25 5 -47 -11 -19 -14 -43 -21 -75 -21 -40 0 -50 4 -75
34 -69 84 10 186 122 157 19 -5 41 -16 48 -25 11 -15 14 -15 22 -2 14 21 12
42 -2 37 -7 -2 -28 2 -47 9 -37 16 -71 16 -116 3z"/>
<path d="M8470 10414 c0 -16 -49 -128 -86 -196 -18 -33 -18 -33 4 -35 12 -1
21 9 28 30 9 31 10 32 75 34 60 2 67 0 79 -22 7 -13 10 -28 6 -33 -3 -6 5 -9
19 -8 29 1 30 4 11 31 -7 11 -31 61 -51 110 -21 50 -39 91 -39 91 -1 1 -11 5
-23 8 -18 6 -23 3 -23 -10z m70 -140 c0 -1 -22 -1 -50 -1 -27 0 -50 1 -50 2 0
1 12 29 26 61 l25 58 25 -60 c13 -32 24 -60 24 -60z"/>
<path d="M8655 10306 c0 -111 2 -122 18 -123 15 -2 18 5 17 30 -4 74 -6 72 67
72 49 0 72 4 90 18 26 21 30 62 9 90 -14 18 -113 40 -121 27 -5 -7 -60 -4 -73
4 -4 2 -7 -51 -7 -118z m179 61 c14 -39 -2 -50 -78 -53 -70 -3 -76 1 -68 58 4
26 6 27 70 25 63 -2 67 -4 76 -30z"/>
<path d="M10086 10423 c-4 -4 -55 -7 -113 -8 -65 0 -108 -4 -110 -10 -2 -7 17
-11 49 -10 l52 0 1 -90 c1 -49 -3 -98 -7 -107 -7 -15 -4 -18 14 -18 23 0 23 2
23 108 l0 107 52 -2 c45 -1 51 1 50 18 -1 22 -1 21 -11 12z"/>
<path d="M10510 10422 l-35 -3 2 -101 c1 -55 4 -103 7 -106 3 -3 1 -11 -6 -19
-10 -12 3 -14 83 -12 79 1 97 4 117 22 27 25 28 61 3 86 -19 19 -19 20 -1 36
21 19 19 51 -5 74 -16 16 -104 28 -165 23z m121 -31 c9 -1 21 -12 27 -25 16
-36 -6 -48 -86 -50 -66 -1 -67 -1 -70 27 -6 55 0 57 129 48z m27 -113 c18 -15
15 -56 -5 -66 -15 -7 -77 -9 -134 -3 -11 1 -15 12 -15 41 0 34 3 39 26 42 41
5 114 -3 128 -14z"/>
<path d="M10774 10423 c-19 -4 -20 -10 -19 -96 2 -108 8 -130 38 -144 55 -25
176 2 177 40 6 168 4 197 -10 197 -12 0 -15 -16 -13 -94 2 -72 -1 -97 -12
-106 -19 -16 -121 -16 -140 0 -19 16 -22 179 -3 198 7 7 10 11 8 11 -3 -1 -14
-4 -26 -6z"/>
<path d="M11159 10423 c-13 -3 -16 -22 -15 -121 l1 -117 85 0 c47 -1 90 -4 97
-8 6 -4 13 1 15 11 5 16 -3 18 -81 18 l-86 -1 0 113 c0 61 0 111 0 111 0 -1
-7 -3 -16 -6z"/>
<path d="M11687 10423 c-2 -4 -4 -59 -3 -121 0 -66 -3 -114 -9 -116 -5 -3 1
-5 15 -5 l25 -1 -2 117 c-3 105 -12 150 -26 126z"/>
<path d="M13215 10423 l-100 -4 2 -85 c1 -47 4 -92 7 -99 2 -7 2 -16 -2 -19
-3 -4 -7 -12 -8 -19 -1 -10 21 -13 90 -12 50 1 97 -3 104 -8 8 -7 12 -4 12 10
0 18 -7 19 -82 19 l-83 -1 -6 37 c-3 20 -3 41 0 46 3 5 32 8 64 7 39 -2 57 1
54 9 -2 6 -27 11 -60 10 -34 0 -57 4 -58 10 0 6 -1 26 -2 44 l-2 33 88 -3 c77
-3 87 -1 87 15 0 9 -1 16 -2 15 -2 -1 -48 -4 -103 -5z"/>
<path d="M13425 10421 c-58 -17 -79 -61 -48 -100 14 -17 33 -23 91 -30 42 -4
79 -14 88 -22 13 -14 13 -18 -5 -41 -18 -22 -27 -25 -74 -24 -31 1 -65 9 -80
19 -21 13 -27 14 -36 3 -9 -10 -3 -17 27 -29 57 -24 96 -29 141 -17 43 11 61
33 61 74 0 34 -32 53 -100 59 -94 9 -119 31 -73 67 34 26 126 22 150 -7 8 -10
12 -13 9 -6 -4 6 -2 14 4 18 5 3 10 10 10 14 0 17 -125 34 -165 22z"/>
<path d="M14235 10422 c-2 -2 -34 -3 -72 -3 l-68 0 0 -117 -1 -117 103 -1 c71
-1 103 3 103 11 0 8 -27 11 -85 10 -92 -2 -86 -6 -89 62 l-1 32 61 -4 c55 -4
62 -3 59 13 -1 9 -9 15 -16 13 -31 -9 -90 -7 -98 3 -4 6 -7 25 -7 41 l1 30 78
5 c43 3 82 1 87 -4 5 -5 8 -1 8 10 -1 14 -10 19 -31 19 -16 0 -30 -1 -32 -3z"/>
<path d="M14370 10421 c-12 -5 -15 -28 -15 -121 0 -148 18 -163 25 -21 l5 105
40 -49 c22 -26 57 -66 77 -89 21 -23 38 -47 38 -53 0 -7 10 -13 23 -13 22 0
22 2 22 120 0 100 -2 120 -15 120 -12 0 -15 -16 -14 -89 0 -84 -1 -89 -18 -80
-10 5 -18 13 -18 17 0 4 -25 34 -55 67 -30 33 -55 65 -55 71 0 15 -21 23 -40
15z"/>
<path d="M14705 10413 c-95 -31 -94 -179 1 -219 48 -20 96 -17 149 9 37 19 43
26 32 35 -11 10 -20 8 -38 -7 -57 -45 -144 -28 -173 33 -16 33 -15 49 6 93 11
22 44 40 88 46 27 4 65 -8 91 -30 14 -12 17 -11 22 2 9 21 8 30 0 30 -5 1 -30
6 -58 12 -60 14 -68 14 -120 -4z"/>
<path d="M15000 10420 c-7 -4 -18 -6 -24 -4 -8 3 -12 -31 -12 -113 l-1 -118
102 -1 c72 -1 102 3 102 11 0 8 -26 11 -89 10 l-89 -2 2 43 c2 24 7 45 13 47
6 2 34 3 62 2 45 -2 51 0 47 16 -4 13 -10 16 -22 11 -9 -4 -34 -8 -56 -7 -40
0 -40 0 -42 42 l-3 42 85 -2 c58 -1 86 2 89 10 6 15 -27 20 -81 12 -23 -3 -48
-2 -55 2 -8 4 -20 4 -28 -1z"/>
<path d="M15729 10403 c-89 -50 -96 -155 -14 -209 37 -24 126 -22 164 5 142
102 4 288 -150 204z m152 -36 c41 -43 41 -98 -2 -138 -52 -48 -150 -40 -178
15 -41 80 6 152 101 153 43 1 54 -3 79 -30z"/>
<path d="M16448 10425 c-2 -3 -46 -6 -97 -8 l-92 -2 -2 -115 -2 -116 107 0
c78 0 105 3 101 11 -3 8 -31 12 -86 11 l-82 -1 -6 42 c-6 50 0 54 71 47 47 -5
50 -3 50 18 0 13 -4 19 -8 13 -6 -8 -54 -12 -99 -6 -8 0 -13 17 -13 42 l0 40
50 -2 c27 -2 52 0 56 3 3 3 19 2 35 -2 25 -7 29 -6 29 11 0 19 -3 23 -12 14z"/>
<path d="M17000 10413 c0 -16 8 -19 48 -18 l47 0 0 -108 c0 -94 2 -107 17
-107 15 0 17 10 17 68 0 37 0 86 0 109 l1 42 50 -3 c35 -3 50 0 47 8 -2 7 -38
11 -103 11 -55 1 -105 4 -112 9 -8 5 -12 1 -12 -11z"/>
<path d="M17289 10423 c-14 -3 -17 -20 -16 -112 0 -60 -3 -113 -7 -119 -3 -5
1 -13 9 -16 22 -8 24 3 27 137 2 64 3 116 3 116 0 -1 -7 -3 -16 -6z"/>
<path d="M17439 10406 c-44 -22 -79 -73 -79 -114 0 -128 216 -159 270 -39 29
63 9 122 -51 153 -47 24 -93 24 -140 0z m152 -42 c35 -37 22 -144 -18 -144 -7
0 -13 -4 -13 -8 0 -4 -10 -9 -22 -10 -13 -1 -32 -4 -42 -5 -47 -8 -106 45
-106 96 0 53 46 109 83 99 4 -1 7 2 7 7 0 16 89 -12 111 -35z"/>
<path d="M18105 10419 c-16 -4 -25 -7 -18 -8 7 -1 -9 -41 -37 -96 -27 -52 -46
-95 -42 -95 3 0 1 -5 -6 -12 -17 -17 -15 -24 6 -25 12 -1 18 6 20 24 3 39 8
42 78 42 62 0 66 -2 84 -31 10 -18 26 -33 35 -34 9 -1 15 1 13 4 -2 4 -10 21
-18 37 -7 17 -28 62 -46 100 -18 39 -34 77 -36 85 -2 12 -11 14 -33 9z m28
-91 c14 -26 22 -49 19 -52 -7 -8 -87 -8 -94 0 -3 3 5 28 19 56 13 27 26 49 28
47 2 -2 14 -25 28 -51z"/>
<path d="M18650 10417 c-43 -15 -63 -50 -48 -83 14 -30 47 -42 125 -43 65 -1
97 -47 51 -72 -39 -21 -85 -21 -131 -1 -43 19 -44 19 -56 0 -7 -11 -8 -17 -3
-14 5 3 24 -2 42 -10 18 -9 56 -18 85 -19 46 -2 57 1 84 26 25 22 30 34 26 56
-2 15 -12 34 -22 40 -14 11 -76 18 -118 14 -5 0 -21 8 -34 18 -28 21 -23 47
11 60 30 12 115 6 133 -9 11 -9 16 -7 26 12 6 13 8 20 4 16 -4 -4 -16 -3 -27
3 -30 16 -109 19 -148 6z"/>
<path d="M19167 10423 c-2 -5 -3 -60 -3 -123 1 -94 4 -115 16 -118 12 -2 15 8
13 51 l-3 54 58 -2 c62 -3 121 15 123 37 0 7 2 23 3 35 2 13 -5 30 -15 39 -19
18 -137 36 -145 22 -3 -4 -14 -4 -24 2 -10 6 -21 7 -23 3z m158 -33 c21 -17
24 -48 6 -64 -13 -12 -88 -16 -133 -7 -4 0 -6 20 -5 44 l1 42 59 -2 c33 -1 65
-7 72 -13z"/>
<path d="M19454 10419 c-2 -4 -14 -5 -27 -2 -12 3 -18 1 -12 -4 6 -4 10 -56
10 -118 0 -90 3 -110 15 -110 10 0 14 13 15 50 l0 50 60 1 c82 1 82 1 104 23
22 22 20 66 -4 90 -14 15 -153 32 -161 20z m143 -49 c19 -39 -5 -57 -77 -59
-54 -1 -60 1 -65 21 -3 13 -4 33 -3 46 2 22 6 23 67 20 58 -3 67 -6 78 -28z"/>
<path d="M19760 10412 c-41 -17 -77 -56 -86 -95 -11 -54 32 -122 85 -133 14
-3 34 -7 44 -9 49 -9 145 51 148 93 6 80 -9 114 -60 136 -50 23 -90 25 -131 8z
m136 -44 c66 -65 22 -162 -76 -171 -110 -9 -164 129 -72 186 41 24 117 17 148
-15z"/>
<path d="M20048 10422 l-36 -3 -1 -120 c0 -113 1 -119 20 -119 13 0 18 4 13
12 -10 16 -5 81 7 88 7 5 40 5 70 1 3 -1 20 -23 38 -51 20 -31 40 -50 52 -50
17 0 15 6 -16 55 -26 41 -32 55 -20 55 23 0 55 37 55 65 0 52 -65 77 -182 67z
m141 -36 c17 -11 13 -41 -6 -58 -12 -10 -40 -16 -80 -17 l-63 -1 0 46 0 46 35
-4 c19 -2 35 -1 35 3 0 8 61 -4 79 -15z"/>
<path d="M21015 10420 l-30 -5 -1 -117 c-1 -91 2 -118 12 -118 9 0 14 18 16
58 l3 57 63 -1 c40 0 61 3 59 10 -2 6 -30 11 -63 11 l-59 1 -2 41 -3 41 90 -2
c74 -1 90 2 90 14 0 12 -15 15 -72 15 -40 0 -86 -2 -103 -5z"/>
<path d="M21330 10421 c-92 -21 -133 -91 -105 -178 11 -35 67 -64 124 -65 93
-2 156 62 144 147 -10 64 -92 112 -163 96z m109 -55 c28 -28 35 -90 14 -122
-18 -28 -65 -48 -109 -46 -107 4 -143 139 -50 187 43 22 113 12 145 -19z"/>
<path d="M21616 10422 c-3 -5 -18 -7 -34 -4 l-28 4 0 -125 c1 -106 3 -123 16
-120 12 3 15 16 14 54 -2 27 2 50 7 50 65 9 81 1 115 -56 20 -35 32 -45 52
-45 22 0 24 2 11 13 -14 11 -59 82 -59 93 0 2 6 4 13 4 8 0 21 8 29 18 48 54
20 103 -61 108 -28 2 -56 6 -61 9 -5 3 -11 2 -14 -3z m121 -52 c21 -42 -4 -57
-89 -56 l-71 1 -2 35 c-1 19 1 39 3 43 2 5 36 7 75 5 64 -3 73 -5 84 -28z"/>
<path d="M22213 10422 l-33 -3 0 -110 c0 -124 0 -123 20 -126 12 -2 14 9 12
57 l-4 58 61 -2 c56 -3 61 -2 61 18 0 12 -4 16 -8 11 -6 -9 -41 -11 -102 -6
-12 1 -15 10 -12 41 3 33 8 40 26 40 79 0 131 -2 138 -6 4 -3 8 0 8 5 0 6 0
14 0 17 0 7 -117 11 -167 6z"/>
<path d="M23087 10411 c4 -16 12 -19 53 -16 l49 3 -2 -109 c-2 -96 0 -109 15
-109 14 0 16 13 16 93 0 50 0 99 1 108 1 12 12 16 51 15 43 -2 50 1 50 17 0
14 -4 17 -12 10 -15 -11 -197 -11 -215 0 -7 5 -9 1 -6 -12z"/>
<path d="M23369 10423 c-13 -3 -15 -22 -14 -116 1 -70 -3 -115 -9 -119 -6 -4
1 -8 15 -8 24 0 25 3 23 50 -1 42 1 50 17 51 11 1 29 2 42 2 16 1 31 -12 57
-51 20 -31 41 -52 52 -52 10 0 18 5 18 10 0 6 -4 10 -8 10 -7 0 -25 30 -50 83
-2 4 3 7 10 7 27 0 57 43 51 73 -8 40 -38 55 -110 55 -34 0 -65 2 -70 4 -4 3
-15 3 -24 1z m163 -45 c17 -17 18 -22 5 -41 -13 -19 -24 -22 -87 -22 l-73 0
-1 43 -1 43 69 -2 c53 -2 74 -7 88 -21z"/>
<path d="M24303 10304 c-1 -108 1 -124 16 -124 14 0 16 16 16 119 0 100 -3
121 -16 124 -13 4 -15 -13 -16 -119z"/>
<path d="M2425 10301 c0 -98 3 -121 15 -124 13 -3 15 12 13 100 -1 56 0 103 2
103 8 0 160 -184 158 -192 -2 -4 7 -8 20 -8 22 0 22 2 22 120 0 100 -3 120
-15 120 -12 0 -15 -16 -13 -90 2 -49 0 -90 -3 -90 -4 0 -15 10 -26 23 -11 12
-29 33 -41 47 -12 14 -37 44 -55 68 -21 26 -42 42 -55 42 -21 0 -22 -4 -22
-119z"/>
<path d="M2694 10409 c-7 -13 8 -16 56 -14 l45 3 0 -106 c0 -89 3 -107 15
-107 12 0 15 18 15 105 l0 105 53 -2 c36 -1 52 2 52 10 0 9 -31 13 -115 13
-64 1 -118 -3 -121 -7z"/>
<path d="M3556 10412 c7 -4 10 -47 8 -120 -2 -96 0 -113 13 -110 12 2 15 25
16 121 l2 117 -25 0 c-14 0 -20 -4 -14 -8z"/>
<path d="M4025 10404 c-65 -34 -86 -98 -54 -162 24 -49 69 -71 136 -68 73 4
100 24 99 75 -1 29 -5 41 -16 42 -8 0 -32 1 -53 2 -27 2 -37 -2 -37 -13 0 -11
11 -15 37 -15 32 0 37 -3 35 -20 -5 -26 -17 -33 -68 -41 -54 -8 -101 16 -120
62 -30 70 30 138 116 130 22 -2 51 -11 64 -19 17 -12 26 -13 34 -5 32 32 -121
60 -173 32z"/>
<path d="M4715 10412 c7 -4 10 -52 10 -120 -1 -93 1 -112 13 -110 11 2 14 28
15 121 l2 117 -25 0 c-14 0 -20 -4 -15 -8z"/>
<path d="M4826 10300 c1 -66 4 -120 8 -120 3 0 9 0 14 0 4 0 6 45 5 101 -2
119 -8 120 107 -20 40 -49 78 -87 84 -85 7 3 11 46 11 124 0 100 -3 120 -15
120 -13 0 -14 -16 -12 -97 3 -80 2 -94 -10 -82 -45 47 -138 162 -138 170 0 5
-12 9 -27 9 l-28 0 1 -120z"/>
<path d="M5624 10303 l1 -118 95 0 c55 0 96 4 97 10 2 6 -30 10 -80 10 l-82 0
0 108 c0 91 -2 107 -16 107 -14 0 -16 -16 -15 -117z"/>
<path d="M5866 10303 l2 -118 101 -1 c69 0 101 3 101 11 0 7 -27 11 -84 10
-69 -1 -85 2 -88 15 -2 8 -3 57 -2 108 1 79 -1 92 -15 92 -14 0 -16 -16 -15
-117z"/>
<path d="M6115 10300 c0 -101 2 -120 15 -120 14 0 16 18 15 120 0 101 -2 120
-15 120 -13 0 -16 -19 -15 -120z"/>
<path d="M6263 10402 c-64 -34 -80 -131 -31 -187 49 -56 171 -57 217 -1 8 9 8
16 2 20 -7 5 -7 15 -1 31 6 16 6 25 0 26 -58 4 -105 0 -108 -10 -2 -7 11 -11
37 -11 37 0 41 -2 41 -25 0 -20 -7 -26 -39 -36 -74 -22 -142 8 -154 69 -6 29
15 83 40 104 24 20 102 18 139 -3 33 -18 34 -18 45 2 6 12 7 19 2 16 -5 -3
-27 0 -49 8 -52 19 -102 17 -141 -3z"/>
<path d="M8975 10411 c3 -6 -18 -59 -47 -119 -50 -102 -52 -109 -32 -108 12 0
20 4 18 8 -2 3 1 18 7 32 11 23 16 25 77 23 61 -2 66 -4 81 -32 9 -16 25 -31
35 -33 10 -2 16 0 14 5 -2 4 -18 40 -36 78 -18 39 -40 86 -50 104 -9 19 -16
39 -14 43 1 4 -12 8 -29 8 -16 0 -28 -4 -24 -9z m45 -75 c11 -25 20 -49 20
-54 0 -4 -20 -9 -45 -11 -35 -1 -45 1 -45 14 0 17 37 95 45 95 2 0 14 -20 25
-44z"/>
<path d="M9164 10300 l1 -120 75 0 c99 0 120 7 135 43 13 31 3 77 -17 77 -5 0
-1 11 8 25 21 33 11 73 -22 85 -14 6 -60 10 -103 10 l-77 0 0 -120z m164 86
c24 -8 31 -47 10 -63 -7 -5 -42 -9 -78 -9 -64 1 -65 1 -71 31 -3 17 -4 35 -2
40 4 12 107 13 141 1z m22 -115 c25 -49 1 -67 -86 -66 l-69 1 -3 42 -3 42 75
0 c64 0 77 -3 86 -19z"/>
<path d="M9436 10408 c11 -17 11 -201 1 -215 -7 -10 -3 -13 14 -13 24 0 24 0
24 120 0 119 0 120 -23 120 -15 0 -21 -4 -16 -12z"/>
<path d="M9550 10398 c-1 -13 -2 -66 -3 -118 l-2 -96 103 0 c71 -1 102 2 102
11 0 8 -26 11 -85 10 -70 -1 -85 2 -86 15 -6 63 -2 177 5 188 6 8 2 12 -13 12
-15 0 -21 -6 -21 -22z"/>
<path d="M9791 10310 c0 -61 -3 -115 -6 -120 -4 -6 6 -10 20 -10 14 0 24 4 21
8 -6 10 -8 151 -3 200 2 25 -1 32 -14 32 -16 0 -18 -12 -18 -110z"/>
<path d="M10151 10378 c19 -24 36 -45 40 -48 18 -15 30 -57 28 -98 -3 -42 -1
-47 19 -48 13 -1 19 3 15 9 -4 6 -6 31 -4 55 3 43 50 127 90 160 13 10 11 12
-10 12 -17 0 -28 -9 -38 -31 -7 -17 -23 -41 -35 -54 l-23 -24 -34 54 c-25 40
-40 54 -57 55 -23 0 -23 -1 9 -42z"/>
<path d="M11036 10398 c8 -24 8 -31 1 -63 -2 -11 -1 -34 3 -52 4 -18 5 -34 2
-37 -3 -3 -5 -21 -6 -40 -1 -24 2 -32 10 -25 6 5 14 6 17 2 4 -3 6 49 6 116 0
115 -1 121 -20 121 -17 0 -19 -4 -13 -22z"/>
<path d="M11385 10300 l0 -121 86 2 c72 1 92 5 113 23 50 39 52 133 5 187 -19
22 -30 24 -112 27 l-92 2 0 -120z m170 87 c33 -17 43 -38 40 -90 -3 -71 -26
-90 -110 -92 l-65 -2 0 99 0 98 58 -1 c31 -1 66 -6 77 -12z"/>
<path d="M11785 10300 c0 -101 2 -120 15 -120 13 0 15 16 13 95 -1 68 2 95 10
94 12 0 124 -134 142 -170 5 -10 19 -19 30 -19 19 0 20 6 20 120 0 100 -3 120
-15 120 -12 0 -15 -16 -12 -97 3 -111 13 -112 -90 10 -32 38 -58 73 -58 78 0
5 -12 9 -27 9 l-28 0 0 -120z"/>
<path d="M12136 10400 c-56 -36 -74 -99 -45 -158 28 -56 83 -78 161 -66 52 8
75 31 75 77 0 36 -2 37 -36 38 -20 0 -45 2 -57 3 -16 2 -20 -2 -17 -15 4 -14
10 -15 33 -9 32 9 40 5 40 -21 0 -46 -116 -64 -159 -25 -46 42 -43 119 7 155
34 23 102 23 149 -2 23 -12 32 -14 35 -5 13 38 -136 59 -186 28z"/>
<path d="M12837 10373 c1 -27 2 -61 3 -78 0 -16 0 -51 -2 -77 -2 -33 0 -44 8
-37 6 5 14 6 17 2 4 -3 7 17 7 45 0 34 4 53 13 53 56 7 87 -3 87 -26 0 -8 5
-15 10 -15 6 0 10 -7 10 -15 0 -8 5 -15 10 -15 6 0 10 -7 10 -15 0 -9 9 -15
25 -15 l25 0 -35 50 c-39 55 -41 60 -22 60 21 0 57 39 57 61 0 11 -11 31 -25
44 -22 23 -32 25 -112 25 l-88 0 2 -47z m111 25 c56 0 71 -7 76 -35 8 -37 -9
-47 -88 -49 l-76 -2 0 43 c0 40 13 59 32 48 5 -2 30 -4 56 -5z"/>
<path d="M13645 10300 c0 -66 3 -120 8 -120 4 0 10 -1 15 -2 4 -2 8 52 8 120
1 106 -1 122 -15 122 -14 0 -16 -16 -16 -120z"/>
<path d="M13747 10303 l2 -118 101 -1 c68 0 100 3 100 11 0 7 -28 11 -85 10
-52 0 -85 3 -86 10 -1 5 -1 54 -1 108 0 84 -2 97 -16 97 -15 0 -17 -14 -15
-117z"/>
<path d="M13995 10300 c0 -102 2 -120 15 -118 23 5 23 238 0 238 -13 0 -15
-18 -15 -120z"/>
<path d="M15996 10393 c2 -16 7 -33 9 -40 2 -7 0 -15 -5 -18 -6 -4 -7 -13 -1
-23 6 -11 6 -24 0 -35 -6 -10 -6 -17 -1 -17 5 0 6 -17 2 -40 -6 -34 -5 -40 9
-38 11 2 17 17 21 52 l5 49 67 2 c76 2 108 21 108 64 0 54 -33 71 -139 71
l-80 0 5 -27z m184 -38 c0 -32 -22 -42 -92 -43 l-58 -1 0 44 0 44 48 3 c61 4
102 -15 102 -47z"/>
<path d="M16517 10414 c-3 -4 -2 -17 3 -30 6 -14 6 -24 0 -24 -5 0 -5 -12 0
-30 5 -16 5 -32 1 -35 -5 -2 -5 -22 -1 -44 4 -21 3 -46 -1 -54 -6 -10 -3 -16
11 -20 18 -5 20 -1 19 44 -1 27 1 52 4 56 4 3 22 7 42 8 30 2 38 -2 57 -34 12
-20 32 -47 44 -60 35 -38 39 -6 5 45 -35 52 -36 54 -16 54 22 0 55 41 55 70 0
40 -40 57 -136 58 -45 1 -84 -1 -87 -4z m160 -20 c30 -8 40 -42 19 -63 -21
-21 -160 -26 -152 -6 2 7 1 16 -4 21 -4 5 -4 19 1 32 7 19 16 22 61 22 29 0
63 -3 75 -6z"/>
<path d="M16863 10399 c-1 -11 -16 -48 -32 -83 -17 -34 -31 -67 -31 -73 0 -6
-7 -16 -15 -23 -23 -19 -18 -38 8 -36 17 1 23 6 19 19 -8 31 14 43 82 44 57 1
65 -2 76 -22 7 -13 10 -27 6 -33 -4 -7 26 -10 42 -3 2 0 -4 13 -12 29 -23 41
-86 182 -86 193 0 5 -13 9 -28 9 -21 0 -28 -5 -29 -21z m51 -63 c14 -30 26
-57 26 -60 0 -3 -23 -5 -51 -4 -27 0 -49 3 -47 7 2 3 12 30 22 59 11 29 21 52
22 52 2 0 14 -24 28 -54z"/>
<path d="M17704 10300 c0 -87 3 -120 12 -120 9 0 12 27 11 100 -1 55 1 100 4
100 4 0 18 -15 32 -32 13 -18 40 -50 58 -70 56 -60 69 -78 69 -88 0 -6 8 -10
19 -10 17 0 19 9 19 109 0 61 3 115 7 121 5 8 1 11 -11 8 -16 -3 -19 -14 -20
-78 -2 -110 -2 -109 -25 -80 -11 14 -38 44 -60 67 -21 22 -39 46 -39 51 0 5
-7 13 -16 16 -8 3 -12 10 -9 16 4 6 -6 10 -23 10 l-28 0 0 -120z"/>
<path d="M18275 10302 l-1 -117 98 0 c60 0 97 4 95 10 -1 6 -37 10 -83 10
l-81 -1 2 108 c1 93 -1 108 -14 108 -14 0 -16 -17 -16 -118z"/>
<path d="M18876 10348 c2 -40 5 -92 9 -115 6 -39 10 -44 45 -54 44 -13 116 -5
145 17 17 13 20 27 20 107 0 51 4 98 8 105 6 8 2 12 -12 12 -19 0 -20 -6 -19
-89 0 -48 -4 -96 -9 -105 -6 -12 -25 -18 -59 -20 -56 -3 -93 10 -96 33 -6 68
-3 167 6 173 6 4 0 8 -14 8 -25 0 -25 -1 -24 -72z"/>
<path d="M20266 10412 c-14 -13 -3 -18 37 -17 23 1 47 0 53 -2 7 -3 10 -39 8
-108 -2 -82 0 -105 12 -109 8 -3 14 0 15 7 0 7 1 57 2 112 l2 100 53 -2 c37
-1 52 2 49 10 -4 12 -220 21 -231 9z"/>
<path d="M21803 10406 c2 -6 21 -11 43 -12 21 0 44 -1 49 -2 6 -1 10 -45 10
-108 -1 -58 2 -107 5 -109 18 -11 25 21 25 115 l0 105 53 -1 c35 -1 52 2 49
10 -2 7 -44 11 -121 12 -81 1 -116 -2 -113 -10z"/>
<path d="M22066 10412 c6 -4 10 -50 9 -119 -1 -97 1 -113 15 -113 14 0 16 17
16 120 l-1 120 -25 0 c-14 0 -20 -4 -14 -8z"/>
<path d="M22420 10393 c83 -107 82 -106 78 -159 -2 -42 0 -50 14 -51 14 -1 17
7 17 52 -1 57 14 87 75 153 l30 32 -27 0 c-15 0 -26 -3 -25 -7 2 -5 -12 -29
-31 -55 l-34 -47 -33 42 c-19 23 -34 48 -34 55 0 6 -12 12 -26 12 l-26 0 22
-27z"/>
<path d="M23710 10408 c-1 -7 -24 -60 -53 -118 -50 -101 -51 -106 -30 -107 13
0 21 3 18 7 -3 5 0 20 6 33 10 22 17 25 73 26 53 1 66 -3 82 -22 11 -13 19
-28 16 -35 -2 -7 5 -12 17 -12 23 0 23 2 -19 90 -15 30 -35 76 -46 102 -15 37
-24 48 -41 48 -13 0 -23 -6 -23 -12z m44 -73 c14 -31 26 -57 26 -59 0 -7 -89
-6 -93 1 -4 6 34 113 39 113 1 0 13 -25 28 -55z"/>
<path d="M23895 10298 c0 -106 2 -118 18 -118 15 0 17 11 16 110 0 60 2 114 6
119 4 7 -3 10 -17 9 -23 -2 -23 -4 -23 -120z"/>
<path d="M24005 10308 c1 -69 -3 -116 -9 -120 -6 -4 0 -8 14 -8 l25 0 -3 102
-2 103 21 -25 c12 -14 38 -45 58 -69 20 -24 46 -54 59 -68 12 -13 22 -28 22
-34 0 -5 9 -9 19 -9 18 0 19 9 20 120 1 94 -2 120 -12 120 -11 0 -13 -22 -12
-96 l1 -96 -31 35 c-16 19 -49 57 -72 83 -24 27 -43 54 -43 61 0 8 -12 13 -28
13 l-28 0 1 -112z"/>
<path d="M24406 10409 c3 -6 6 -60 5 -120 -2 -90 1 -109 12 -109 12 0 15 17
13 95 -2 53 1 98 5 101 5 3 9 2 9 -3 0 -4 17 -26 38 -49 80 -88 98 -110 105
-127 3 -9 14 -17 24 -17 17 0 18 11 19 120 0 91 -3 120 -13 120 -10 0 -13 -24
-13 -92 l-1 -93 -32 35 c-72 79 -117 134 -117 142 0 4 -14 8 -31 8 -19 0 -28
-4 -23 -11z"/>
<path d="M24758 10402 c-60 -36 -77 -118 -36 -177 27 -40 73 -58 133 -50 70 8
94 28 92 76 -1 38 -3 39 -37 40 -19 0 -43 2 -52 4 -11 2 -18 -3 -18 -12 0 -8
8 -13 18 -12 41 4 52 -1 52 -25 0 -19 -8 -27 -33 -35 -43 -15 -106 -6 -129 17
-47 46 -36 127 21 156 39 20 120 13 142 -13 15 -18 16 -18 27 -1 10 16 7 20
-21 31 -49 18 -128 19 -159 1z"/>
<path d="M4433 10370 c-29 -12 -52 -59 -46 -93 10 -49 82 -79 119 -48 53 43
48 112 -11 137 -19 8 -36 14 -37 13 -2 0 -13 -4 -25 -9z"/>
<path d="M7788 10367 c-31 -12 -50 -53 -41 -89 9 -34 22 -47 57 -57 66 -17
117 43 91 106 -7 17 -17 33 -22 35 -21 12 -60 14 -85 5z"/>
<path d="M12553 10369 c-12 -4 -29 -22 -38 -38 -34 -67 38 -139 106 -105 88
44 24 177 -68 143z"/>
<path d="M15395 10370 c-71 -28 -65 -129 9 -149 96 -26 140 115 46 148 -18 6
-33 11 -34 10 -1 0 -10 -4 -21 -9z"/>
<path d="M20675 10370 c-32 -12 -49 -39 -48 -76 1 -43 16 -62 57 -73 66 -17
117 43 91 106 -7 17 -17 33 -22 36 -18 11 -58 15 -78 7z"/>
<path d="M22787 10363 c-39 -20 -50 -55 -33 -98 38 -90 170 -43 145 51 -15 54
-62 74 -112 47z"/>
<path d="M1859 9898 c-14 -5 -19 -17 -19 -43 l0 -35 11520 0 11520 0 0 40 0
40 -4787 0 c-2634 0 -7809 2 -11501 3 -3692 1 -6722 -1 -6733 -5z"/>
</g>
</svg>
