<?xml version="1.0" encoding="UTF-8"?>
<svg width="630px" height="139px" viewBox="0 0 630 139" version="1.1" xmlns="http://www.w3.org/2000/svg" xmlns:xlink="http://www.w3.org/1999/xlink">
    <title>MICROFT</title>
    <g id="Page-1" stroke="none" stroke-width="1" fill="none" fill-rule="evenodd">
        <g id="microft">
            <g id="XMLID_3_" fill="#095432" fill-rule="nonzero">
                <path d="M102.6,106.2 L97.1,20.6 C78.8,58.3 65.2,86.9 56.5,106.2 C53.2,99.1 46.3,84.7 35.8,63 C25.3,41.3 18.5,27.1 15.5,20.7 L12.6,106.2 L6,106.2 L9.3,7.8 C9.3,7.8 8.6,7.2 7.1,6 C5.6,4.8 4.1,3.6 2.7,2.4 C1.2,1.2 0.5,0.6 0.5,0.6 L22.4,0.6 L60.7,80.5 L99.1,0.6 L120.4,0.6 C115.5,4.4 112.4,6.7 111.2,7.6 L117.6,106.2 L102.6,106.2 Z" id="XMLID_4_"></path>
                <polygon id="XMLID_6_" points="125.3 0.6 149 0.6 149 106.1 134.1 106.1 134.1 7.8"></polygon>
                <path d="M245,26.6 C241.8,20 237.6,14.9 232.2,11.3 C226.9,7.7 221.3,5.7 215.6,5.4 C209.8,5.1 204,6 198.2,8.2 C192.3,10.4 187.1,13.6 182.7,17.7 C178.2,21.9 174.7,27.1 172.1,33.4 C169.5,39.7 168.6,46.3 169.2,53.4 C169.7,59.4 171.3,65.1 173.8,70.5 C176.3,76 179.7,80.9 183.9,85.2 C188.1,89.6 193.4,93 199.9,95.6 C206.3,98.2 213.4,99.4 221,99.3 C232.4,99.1 240.4,98 245,95.9 L245,100.1 C236,104.1 226.4,106.1 216.2,106.1 C205,106.1 194.6,103.7 185.1,99 C175.6,94.3 168,87.9 162.5,79.8 C157,71.7 154.2,62.9 154.2,53.3 C154.2,45.1 155.9,37.6 159.3,30.8 C162.7,24 167.4,18.4 173.4,14 C179.4,9.6 186.2,6.2 193.8,3.8 C201.4,1.4 209.7,0.2 218.6,0.4 C227.5,0.5 236.3,2 245.1,4.7 L245,26.6 Z" id="XMLID_8_"></path>
                <path d="M273.1,106.1 L259,106.1 L259,7.9 C259,8 258.3,7.4 256.8,6.2 C255.3,5 253.8,3.8 252.3,2.5 C250.8,1.3 250.1,0.6 250.1,0.6 L273.8,0.6 C278.6,0.4 283.4,0.4 288.2,0.6 C293,0.8 297.6,1 302.1,1.3 C306.5,1.6 310.6,2.2 314.5,3.2 C318.3,4.1 321.6,5.3 324.4,6.7 C327.2,8.1 329.3,10 330.9,12.4 C332.4,14.8 333.1,17.5 333,20.7 C332.8,25.4 329.8,29.4 324.2,32.7 C318.6,36 309.9,38 298.2,38.5 C303.3,38.9 307.8,40.2 311.6,42.2 C315.4,44.3 318.4,46.8 320.5,49.8 C322.6,52.8 324.4,56.2 325.9,59.9 C327.4,63.6 328.4,67.4 329.1,71.2 C329.7,75 330.3,78.7 331,82.3 C331.7,85.9 332.3,89.1 332.9,91.9 C333.5,94.7 334.5,97 335.8,98.7 C337.2,100.4 338.9,101.3 340.9,101.3 L340.9,106 C336.7,105.8 333,105 330,103.4 C326.9,101.8 324.5,99.7 322.8,97.1 C321,94.5 319.6,91.6 318.4,88.3 C317.2,85 316.1,81.5 315.3,77.9 C314.4,74.3 313.5,70.6 312.6,67 C311.7,63.4 310.4,59.9 308.9,56.5 C307.3,53.2 305.5,50.2 303.2,47.5 C301,44.9 297.9,42.7 294.1,41 C290.3,39.3 285.8,38.3 280.7,38 L280.7,37.4 L280.7,33.2 C286.2,33.6 291.3,33.6 295.9,33.3 C300.5,33 304.5,32.3 307.8,31.3 C311.1,30.3 313.7,28.8 315.5,26.8 C317.3,24.8 318.2,22.3 318.2,19.3 C318.2,15.6 316.2,12.5 312.4,10 C308.6,7.4 303.4,5.9 296.9,5.3 C290.4,4.7 282.8,5.6 274.1,7.8 L274.1,106 L273.1,106.1 Z" id="XMLID_10_"></path>
                <path d="M435.1,7.7 C444.2,12.4 451.5,18.8 456.8,26.9 C462.1,35 464.8,43.8 464.8,53.4 C464.8,63 462.1,71.8 456.8,79.9 C451.5,88 444.3,94.4 435.1,99.1 C426,103.8 416,106.2 405.2,106.2 C394.4,106.2 384.4,103.8 375.3,99.1 C366.2,94.4 358.9,88 353.6,79.9 C348.3,71.8 345.6,63 345.6,53.4 C345.6,43.8 348.3,35 353.6,26.9 C358.9,18.8 366.1,12.4 375.3,7.7 C384.4,3 394.4,0.6 405.2,0.6 C416,0.6 426,3 435.1,7.7 Z M378.4,14 C372.5,18.3 368.3,23.5 365.7,29.5 C363.1,35.5 361.5,42 360.8,48.9 C360.1,55.8 361,62.6 363.4,69.1 C365.8,75.6 369,81.4 373,86.6 C377,91.7 382.4,95.6 389.2,98.2 C396,100.8 403.4,101.6 411.5,100.5 C419.5,99.4 426.5,96.7 432.4,92.3 C438.3,88 442.5,82.8 445,76.8 C447.5,70.8 449.2,64.3 449.8,57.4 C450.5,50.5 449.6,43.7 447.2,37.2 C444.8,30.7 441.6,24.9 437.7,19.7 C433.7,14.6 428.4,10.7 421.6,8.1 C414.8,5.5 407.5,4.7 399.4,5.8 C391.3,6.9 384.3,9.6 378.4,14 Z" id="XMLID_12_"></path>
                <path d="M476.4,6.1 C474.9,4.9 473.4,3.7 471.9,2.4 C470.4,1.2 469.7,0.5 469.7,0.5 L542.3,0.5 L542.3,24.5 C538,11.7 531.5,5.1 522.9,4.6 L493.5,4.6 L493.5,32.8 L528.6,32.8 L528.6,37.5 L493.5,37.5 L493.5,106 L478.7,106 L478.7,7.7 C478.7,7.9 477.9,7.3 476.4,6.1 Z" id="XMLID_15_"></path>
                <polygon id="XMLID_17_" points="547.4 4.6 547.4 0.6 629.3 0.6 629.3 4.6 595.3 4.6 595.3 106.1 580.5 106.1 580.5 4.6"></polygon>
            </g>
            <path d="M46,116 L622,116" id="XMLID_20_" stroke="#006B45" stroke-width="2"></path>
            <g id="XMLID_22_" transform="translate(45.000000, 123.000000)" fill="#000000" fill-rule="nonzero">
                <path d="M4.1,7 L1.6,2 L1.6,6.5 C1.6,6.6 1.6,6.7 1.7,6.8 C1.7,6.9 1.8,6.9 1.9,6.9 L1.9,7 L0.7,7 L0.7,6.9 C0.8,6.9 0.9,6.8 0.9,6.8 C0.9,6.8 1,6.7 1,6.5 L1,1.5 C1,1.4 1,1.3 0.9,1.2 C0.9,1.1 0.8,1.1 0.7,1.1 L0.7,1 L2.3,1 L2.3,1.1 C2.2,1.1 2.1,1.2 2.1,1.3 C2.1,1.3 2.1,1.4 2.2,1.6 L4.2,5.6 L6.2,1.6 C6.3,1.5 6.3,1.4 6.3,1.3 C6.3,1.2 6.2,1.2 6.1,1.1 L6.1,1 L7.7,1 L7.7,1.1 C7.6,1.1 7.5,1.2 7.5,1.2 C7.5,1.2 7.4,1.3 7.4,1.5 L7.4,6.5 C7.4,6.6 7.4,6.7 7.5,6.8 C7.5,6.9 7.6,6.9 7.7,6.9 L7.7,7 L6.4,7 L6.4,6.9 C6.5,6.9 6.6,6.8 6.6,6.8 C6.6,6.8 6.7,6.7 6.7,6.5 L6.7,2 L4.1,7 Z" id="XMLID_23_"></path>
                <path d="M9.9,4.2 L9.9,6.4 L13.7,6.4 C13.8,6.4 13.9,6.4 14,6.3 C14.1,6.3 14.1,6.2 14.1,6.1 L14.2,6.1 L14.2,7.2 L14.1,7.2 C14.1,7.1 14,7 14,7 C14,7 13.9,6.9 13.7,6.9 L8.9,6.9 L8.9,6.8 C9,6.8 9.1,6.7 9.1,6.7 C9.1,6.7 9.2,6.6 9.2,6.4 L9.2,1.4 C9.2,1.3 9.2,1.2 9.1,1.1 C9,1 9,1 8.9,1 L8.9,1 L13.7,1 C13.8,1 13.9,1 14,0.9 C14.1,0.8 14.1,0.8 14.1,0.7 L14.2,0.7 L14.2,1.8 L14,1.8 C14,1.7 13.9,1.6 13.9,1.6 C13.9,1.6 13.8,1.5 13.6,1.5 L9.8,1.5 L9.8,3.6 L12.3,3.6 C12.4,3.6 12.5,3.6 12.6,3.5 C12.7,3.5 12.7,3.4 12.7,3.3 L12.8,3.3 L12.8,4.4 L12.7,4.4 C12.7,4.3 12.6,4.2 12.6,4.2 C12.5,4.2 12.5,4.1 12.3,4.1 L9.9,4.1 L9.9,4.2 Z" id="XMLID_25_"></path>
                <path d="M16.3,1.8 L16.3,6.5 C16.3,6.6 16.3,6.7 16.4,6.8 C16.4,6.9 16.5,6.9 16.6,6.9 L16.6,7 L15.4,7 L15.4,6.9 C15.5,6.9 15.6,6.8 15.6,6.8 C15.6,6.8 15.7,6.7 15.7,6.5 L15.7,1.5 C15.7,1.4 15.7,1.3 15.6,1.2 C15.6,1.1 15.5,1.1 15.4,1.1 L15.4,1 L17.1,1 L17.1,1.1 C17,1.1 16.9,1.2 16.9,1.3 C16.9,1.4 17,1.5 17.1,1.6 L20.7,5.8 L20.7,1.4 C20.7,1.3 20.7,1.2 20.6,1.1 C20.6,1 20.5,1 20.4,1 L20.4,1 L21.6,1 L21.6,1.1 C21.5,1.1 21.4,1.2 21.4,1.2 C21.4,1.3 21.3,1.3 21.3,1.5 L21.3,6.5 C21.3,6.6 21.3,6.7 21.4,6.8 C21.4,6.9 21.5,6.9 21.6,6.9 L21.6,7 L20.2,7 L20.2,6.9 C20.3,6.9 20.4,6.8 20.4,6.7 C20.4,6.6 20.3,6.5 20.2,6.4 L16.3,1.8 Z" id="XMLID_27_"></path>
                <path d="M25.6,1.6 L25.6,6.5 C25.6,6.6 25.6,6.7 25.7,6.8 C25.7,6.9 25.8,6.9 25.9,6.9 L25.9,7 L24.6,7 L24.6,6.9 C24.7,6.9 24.8,6.8 24.8,6.8 C24.8,6.8 24.9,6.7 24.9,6.5 L24.9,1.6 L22.9,1.6 C22.8,1.6 22.7,1.6 22.6,1.7 C22.5,1.8 22.5,1.8 22.5,1.9 L22.4,1.9 L22.4,0.8 L22.5,0.8 C22.5,0.9 22.6,1 22.6,1 C22.6,1 22.7,1.1 22.9,1.1 L27.7,1.1 C27.8,1.1 27.9,1.1 28,1 C28.1,0.9 28.1,0.9 28.1,0.8 L28.2,0.8 L28.2,1.9 L28,1.9 C28,1.8 27.9,1.7 27.9,1.7 C27.9,1.7 27.8,1.6 27.6,1.6 L25.6,1.6 Z" id="XMLID_29_"></path>
                <path d="M32.2,0.9 C33.3,0.9 34.1,1.2 34.8,1.7 C35.2,2 35.4,2.4 35.6,2.8 C35.7,3.2 35.8,3.6 35.8,4 C35.8,4.6 35.6,5.1 35.3,5.6 C34.9,6.2 34.4,6.5 33.8,6.8 C33.3,7 32.8,7.1 32.2,7.1 C31.1,7.1 30.3,6.8 29.7,6.3 C29.3,6 29.1,5.6 28.9,5.2 C28.8,4.8 28.7,4.5 28.7,4.1 C28.7,3.5 28.9,3 29.2,2.5 C29.6,2 30,1.6 30.7,1.3 C31,1 31.6,0.9 32.2,0.9 Z M32.2,1.5 C31.3,1.5 30.6,1.8 30.1,2.3 C29.6,2.8 29.4,3.3 29.4,4 C29.4,4.7 29.6,5.3 30.1,5.8 C30.6,6.3 31.3,6.6 32.2,6.6 C33.1,6.6 33.8,6.3 34.4,5.8 C34.9,5.3 35.1,4.8 35.1,4.1 C35.1,3.4 34.9,2.8 34.4,2.3 C34.1,2 33.8,1.8 33.5,1.7 C33.1,1.6 32.6,1.5 32.2,1.5 Z" id="XMLID_31_"></path>
                <path d="M37.9,4.3 L37.9,6.5 C37.9,6.6 37.9,6.7 38,6.8 C38,6.9 38.1,6.9 38.2,6.9 L38.2,7 L36.9,7 L36.9,6.9 C37,6.9 37.1,6.8 37.1,6.8 C37.1,6.8 37.2,6.7 37.2,6.5 L37.2,1.5 C37.2,1.4 37.2,1.3 37.1,1.2 C37.1,1.1 37,1.1 36.9,1.1 L36.9,1 L40.2,1 C40.7,1 41,1 41.3,1.1 C41.6,1.1 41.8,1.2 42,1.4 C42.2,1.5 42.4,1.7 42.5,1.9 C42.6,2.1 42.7,2.4 42.7,2.7 C42.7,3.2 42.5,3.5 42.2,3.8 C41.9,4.1 41.5,4.3 40.9,4.3 L42.4,6.7 C42.5,6.8 42.6,6.9 42.8,6.9 L42.8,7 L41.4,7 L41.4,6.9 C41.5,6.9 41.6,6.8 41.6,6.8 C41.6,6.8 41.5,6.7 41.4,6.5 L40,4.4 L37.9,4.4 L37.9,4.3 Z M37.9,3.7 L40.3,3.7 C40.6,3.7 40.9,3.7 41,3.7 C41.2,3.7 41.3,3.6 41.4,3.5 C41.7,3.3 41.9,3 41.9,2.6 C41.9,2.2 41.7,1.9 41.4,1.7 C41.3,1.6 41.1,1.6 40.9,1.5 C40.7,1.4 40.5,1.5 40.1,1.5 L37.7,1.5 L37.7,3.7 L37.9,3.7 Z" id="XMLID_34_"></path>
                <path d="M44.1,6.5 L44.1,1.5 C44.1,1.4 44.1,1.3 44,1.2 C44,1.1 43.9,1.1 43.8,1.1 L43.8,1 L45.1,1 L45.1,1.1 C45,1.1 44.9,1.2 44.9,1.2 C44.9,1.2 44.8,1.3 44.8,1.5 L44.8,6.5 C44.8,6.6 44.8,6.7 44.9,6.8 C44.9,6.9 45,6.9 45.1,6.9 L45.1,7 L43.8,7 L43.8,6.9 C43.9,6.9 44,6.8 44,6.8 C44.1,6.7 44.1,6.6 44.1,6.5 Z" id="XMLID_37_"></path>
                <path d="M47.3,1.8 L47.3,6.5 C47.3,6.6 47.3,6.7 47.4,6.8 C47.4,6.9 47.5,6.9 47.6,6.9 L47.6,7 L46.4,7 L46.4,6.9 C46.5,6.9 46.6,6.8 46.6,6.8 C46.6,6.8 46.7,6.7 46.7,6.5 L46.7,1.5 C46.7,1.4 46.7,1.3 46.6,1.2 C46.6,1.1 46.5,1.1 46.4,1.1 L46.4,1 L48.1,1 L48.1,1.1 C48,1.1 47.9,1.2 47.9,1.3 C47.9,1.4 48,1.5 48.1,1.6 L51.7,5.8 L51.7,1.4 C51.7,1.3 51.7,1.2 51.6,1.1 C51.6,1 51.5,1 51.4,1 L51.4,1 L52.6,1 L52.6,1.1 C52.5,1.1 52.4,1.2 52.4,1.2 C52.4,1.3 52.3,1.3 52.3,1.5 L52.3,6.5 C52.3,6.6 52.3,6.7 52.4,6.8 C52.4,6.9 52.5,6.9 52.6,6.9 L52.6,7 L51.2,7 L51.2,6.9 C51.3,6.9 51.4,6.8 51.4,6.7 C51.4,6.6 51.3,6.5 51.2,6.4 L47.3,1.8 Z" id="XMLID_39_"></path>
                <path d="M60.3,1.6 L59.6,2.7 L59.5,2.6 C59.6,2.5 59.6,2.4 59.6,2.4 C59.6,2.3 59.4,2.2 59.1,2 C58.5,1.7 57.9,1.5 57.2,1.5 C56.5,1.5 55.8,1.7 55.3,2.1 C54.7,2.6 54.4,3.2 54.4,4 C54.4,4.8 54.7,5.4 55.2,5.9 C55.7,6.3 56.4,6.5 57.1,6.5 C57.5,6.5 57.9,6.4 58.3,6.3 C58.7,6.2 59,6 59.3,5.8 L59.3,4.7 L58,4.7 C57.9,4.7 57.8,4.7 57.7,4.8 C57.6,4.9 57.6,4.9 57.6,5 L57.5,5 L57.5,3.9 L57.6,3.9 C57.6,4 57.7,4.1 57.7,4.1 C57.7,4.1 57.8,4.2 58,4.2 L60.4,4.2 L60.4,4.3 C60.3,4.3 60.2,4.4 60.2,4.4 C60.2,4.4 60.1,4.5 60.1,4.7 L60.1,5.5 C60.1,5.6 60.1,5.7 60.2,5.8 C60.3,5.9 60.3,5.9 60.4,5.9 L60.4,6 C60.1,6.3 59.8,6.5 59.5,6.7 C58.9,7.1 58.1,7.2 57.3,7.2 C56.3,7.2 55.5,6.9 54.9,6.4 C54.6,6.1 54.4,5.8 54.2,5.4 C54,5 53.9,4.5 53.9,4.1 C53.9,3.4 54.1,2.8 54.5,2.3 C54.9,1.8 55.4,1.5 56,1.2 C56.4,1 56.9,1 57.4,1 C57.8,1 58.2,1.1 58.6,1.2 C59,1.3 59.4,1.5 59.8,1.7 C59.9,1.8 60,1.8 60,1.8 C60,1.8 60.1,1.7 60.2,1.6 L60.3,1.6 Z" id="XMLID_41_"></path>
                <path d="M73.1,6.5 L73.1,1.5 C73.1,1.4 73.1,1.3 73,1.2 C73,1.1 72.9,1.1 72.8,1.1 L72.8,1 L74.1,1 L74.1,1.1 C74,1.1 73.9,1.2 73.9,1.2 C73.9,1.2 73.8,1.3 73.8,1.5 L73.8,6.5 C73.8,6.6 73.8,6.7 73.9,6.8 C73.9,6.9 74,6.9 74.1,6.9 L74.1,7 L72.8,7 L72.8,6.9 C72.9,6.9 73,6.8 73,6.8 C73,6.7 73.1,6.6 73.1,6.5 Z" id="XMLID_43_"></path>
                <path d="M76.3,1.8 L76.3,6.5 C76.3,6.6 76.3,6.7 76.4,6.8 C76.4,6.9 76.5,6.9 76.6,6.9 L76.6,7 L75.4,7 L75.4,6.9 C75.5,6.9 75.6,6.8 75.6,6.8 C75.6,6.8 75.7,6.7 75.7,6.5 L75.7,1.5 C75.7,1.4 75.7,1.3 75.6,1.2 C75.6,1.1 75.5,1.1 75.4,1.1 L75.4,1 L77.1,1 L77.1,1.1 C77,1.1 76.9,1.2 76.9,1.3 C76.9,1.4 77,1.5 77.1,1.6 L80.7,5.8 L80.7,1.4 C80.7,1.3 80.7,1.2 80.6,1.1 C80.6,1 80.5,1 80.4,1 L80.4,1 L81.6,1 L81.6,1.1 C81.5,1.1 81.4,1.2 81.4,1.2 C81.4,1.3 81.3,1.3 81.3,1.5 L81.3,6.5 C81.3,6.6 81.3,6.7 81.4,6.8 C81.4,6.9 81.5,6.9 81.6,6.9 L81.6,7 L80.2,7 L80.2,6.9 C80.3,6.9 80.4,6.8 80.4,6.7 C80.4,6.6 80.3,6.5 80.2,6.4 L76.3,1.8 Z" id="XMLID_45_"></path>
                <path d="M85.6,1.6 L85.6,6.5 C85.6,6.6 85.6,6.7 85.7,6.8 C85.7,6.9 85.8,6.9 85.9,6.9 L85.9,7 L84.6,7 L84.6,6.9 C84.7,6.9 84.8,6.8 84.8,6.8 C84.8,6.8 84.9,6.7 84.9,6.5 L84.9,1.6 L82.9,1.6 C82.8,1.6 82.7,1.6 82.6,1.7 C82.5,1.8 82.5,1.8 82.5,1.9 L82.4,1.9 L82.4,0.8 L82.5,0.8 C82.5,0.9 82.6,1 82.6,1 C82.6,1 82.7,1.1 82.9,1.1 L87.7,1.1 C87.8,1.1 87.9,1.1 88,1 C88.1,0.9 88.1,0.9 88.1,0.8 L88.2,0.8 L88.2,1.9 L88,1.9 C88,1.8 87.9,1.7 87.9,1.7 C87.9,1.7 87.8,1.6 87.6,1.6 L85.6,1.6 Z" id="XMLID_47_"></path>
                <path d="M89.9,4.2 L89.9,6.4 L93.7,6.4 C93.8,6.4 93.9,6.4 94,6.3 C94.1,6.3 94.1,6.2 94.1,6.1 L94.2,6.1 L94.2,7.2 L94.1,7.2 C94.1,7.1 94,7 94,7 C94,7 93.9,6.9 93.7,6.9 L88.9,6.9 L88.9,6.8 C89,6.8 89.1,6.7 89.1,6.7 C89.1,6.7 89.2,6.6 89.2,6.4 L89.2,1.4 C89.2,1.3 89.2,1.2 89.1,1.1 C89,1 89,1 88.9,1 L88.9,1 L93.7,1 C93.8,1 93.9,1 94,0.9 C94.1,0.8 94.1,0.8 94.1,0.7 L94.2,0.7 L94.2,1.8 L94,1.8 C94,1.7 93.9,1.6 93.9,1.6 C93.9,1.6 93.8,1.5 93.6,1.5 L89.8,1.5 L89.8,3.6 L92.3,3.6 C92.4,3.6 92.5,3.6 92.6,3.5 C92.7,3.5 92.7,3.4 92.7,3.3 L92.8,3.3 L92.8,4.4 L92.7,4.4 C92.7,4.3 92.6,4.2 92.6,4.2 C92.5,4.2 92.5,4.1 92.3,4.1 L89.9,4.1 L89.9,4.2 Z" id="XMLID_49_"></path>
                <path d="M96.3,6.4 L100.1,6.4 C100.2,6.4 100.3,6.4 100.4,6.3 C100.5,6.3 100.5,6.2 100.5,6.1 L100.6,6.1 L100.6,7.2 L100.5,7.2 C100.5,7.1 100.4,7 100.4,7 C100.4,7 100.3,6.9 100.1,6.9 L95.3,6.9 L95.3,6.8 C95.4,6.8 95.5,6.7 95.5,6.7 C95.5,6.7 95.6,6.6 95.6,6.4 L95.6,1.4 C95.6,1.3 95.6,1.2 95.5,1.1 C95.4,1 95.4,1 95.3,1 L95.3,1 L96.6,1 L96.6,1.1 C96.5,1.1 96.4,1.2 96.4,1.2 C96.4,1.2 96.3,1.3 96.3,1.5 L96.3,6.4 Z" id="XMLID_51_"></path>
                <path d="M102.4,6.4 L106.2,6.4 C106.3,6.4 106.4,6.4 106.5,6.3 C106.6,6.3 106.6,6.2 106.6,6.1 L106.7,6.1 L106.7,7.2 L106.6,7.2 C106.6,7.1 106.5,7 106.5,7 C106.5,7 106.4,6.9 106.2,6.9 L101.4,6.9 L101.4,6.8 C101.5,6.8 101.6,6.7 101.6,6.7 C101.6,6.7 101.7,6.6 101.7,6.4 L101.7,1.4 C101.7,1.3 101.7,1.2 101.6,1.1 C101.5,1 101.5,1 101.4,1 L101.4,1 L102.7,1 L102.7,1.1 C102.6,1.1 102.5,1.2 102.5,1.2 C102.5,1.2 102.4,1.3 102.4,1.5 L102.4,6.4 Z" id="XMLID_53_"></path>
                <path d="M107.9,6.5 L107.9,1.5 C107.9,1.4 107.9,1.3 107.8,1.2 C107.8,1.1 107.7,1.1 107.6,1.1 L107.6,1 L108.9,1 L108.9,1.1 C108.8,1.1 108.7,1.2 108.7,1.2 C108.7,1.2 108.6,1.3 108.6,1.5 L108.6,6.5 C108.6,6.6 108.6,6.7 108.7,6.8 C108.7,6.9 108.8,6.9 108.9,6.9 L108.9,7 L107.6,7 L107.6,6.9 C107.7,6.9 107.8,6.8 107.8,6.8 C107.8,6.7 107.9,6.6 107.9,6.5 Z" id="XMLID_55_"></path>
                <path d="M116.5,1.6 L115.8,2.7 L115.7,2.6 C115.8,2.5 115.8,2.4 115.8,2.4 C115.8,2.3 115.6,2.2 115.3,2 C114.7,1.7 114.1,1.5 113.4,1.5 C112.7,1.5 112,1.7 111.5,2.1 C110.9,2.6 110.6,3.2 110.6,4 C110.6,4.8 110.9,5.4 111.4,5.9 C111.9,6.3 112.6,6.5 113.3,6.5 C113.7,6.5 114.1,6.4 114.5,6.3 C114.9,6.2 115.2,6 115.5,5.8 L115.5,4.7 L114.1,4.7 C114,4.7 113.9,4.7 113.8,4.8 C113.7,4.9 113.7,4.9 113.7,5 L113.6,5 L113.6,3.9 L113.7,3.9 C113.7,4 113.8,4.1 113.8,4.1 C113.8,4.1 113.9,4.2 114.1,4.2 L116.5,4.2 L116.5,4.3 C116.4,4.3 116.3,4.4 116.3,4.4 C116.3,4.4 116.2,4.5 116.2,4.7 L116.2,5.5 C116.2,5.6 116.2,5.7 116.3,5.8 C116.4,5.9 116.4,5.9 116.5,5.9 L116.5,6 C116.2,6.3 115.9,6.5 115.6,6.7 C115,7.1 114.2,7.2 113.4,7.2 C112.4,7.2 111.6,6.9 111,6.4 C110.7,6.1 110.5,5.8 110.3,5.4 C110.1,5 110,4.5 110,4.1 C110,3.4 110.2,2.8 110.6,2.3 C111,1.8 111.5,1.5 112.1,1.2 C112.5,1 113,1 113.5,1 C113.9,1 114.3,1.1 114.7,1.2 C115.1,1.3 115.5,1.5 115.9,1.7 C116,1.8 116.1,1.8 116.1,1.8 C116.1,1.8 116.2,1.7 116.3,1.6 L116.5,1.6 Z" id="XMLID_57_"></path>
                <path d="M118.7,4.2 L118.7,6.4 L122.5,6.4 C122.6,6.4 122.7,6.4 122.8,6.3 C122.9,6.3 122.9,6.2 122.9,6.1 L123,6.1 L123,7.2 L122.9,7.2 C122.9,7.1 122.8,7 122.8,7 C122.8,7 122.7,6.9 122.5,6.9 L117.7,6.9 L117.7,6.8 C117.8,6.8 117.9,6.7 117.9,6.7 C117.9,6.7 118,6.6 118,6.4 L118,1.4 C118,1.3 118,1.2 117.9,1.1 C117.8,1 117.8,1 117.7,1 L117.7,1 L122.5,1 C122.6,1 122.7,1 122.8,0.9 C122.9,0.8 122.9,0.8 122.9,0.7 L123,0.7 L123,1.8 L122.9,1.8 C122.9,1.7 122.8,1.6 122.8,1.6 C122.8,1.6 122.7,1.5 122.5,1.5 L118.7,1.5 L118.7,3.6 L121.2,3.6 C121.3,3.6 121.4,3.6 121.5,3.5 C121.6,3.5 121.6,3.4 121.6,3.3 L121.7,3.3 L121.7,4.4 L121.6,4.4 C121.6,4.3 121.5,4.2 121.5,4.2 C121.4,4.2 121.4,4.1 121.2,4.1 L118.7,4.1 L118.7,4.2 Z" id="XMLID_59_"></path>
                <path d="M125.1,1.8 L125.1,6.5 C125.1,6.6 125.1,6.7 125.2,6.8 C125.2,6.9 125.3,6.9 125.4,6.9 L125.4,7 L124.2,7 L124.2,6.9 C124.3,6.9 124.4,6.8 124.4,6.8 C124.4,6.8 124.5,6.7 124.5,6.5 L124.5,1.5 C124.5,1.4 124.5,1.3 124.4,1.2 C124.4,1.1 124.3,1.1 124.2,1.1 L124.2,1 L125.9,1 L125.9,1.1 C125.8,1.1 125.7,1.2 125.7,1.3 C125.7,1.4 125.8,1.5 125.9,1.6 L129.5,5.8 L129.5,1.4 C129.5,1.3 129.5,1.2 129.4,1.1 C129.4,1 129.3,1 129.2,1 L129.2,1 L130.4,1 L130.4,1.1 C130.3,1.1 130.2,1.2 130.2,1.2 C130.2,1.3 130.1,1.3 130.1,1.5 L130.1,6.5 C130.1,6.6 130.1,6.7 130.2,6.8 C130.2,6.9 130.3,6.9 130.4,6.9 L130.4,7 L129,7 L129,6.9 C129.1,6.9 129.2,6.8 129.2,6.7 C129.2,6.6 129.1,6.5 129,6.4 L125.1,1.8 Z" id="XMLID_61_"></path>
                <path d="M138.1,1.5 L137.4,2.6 L137.3,2.5 C137.3,2.4 137.3,2.3 137.3,2.3 C137.3,2.2 137.1,2 136.7,1.8 C136.2,1.5 135.6,1.4 135,1.4 C134.2,1.4 133.5,1.6 133,2.1 C132.5,2.6 132.2,3.2 132.2,3.9 C132.2,4.6 132.5,5.2 133,5.7 C133.5,6.2 134.2,6.4 134.9,6.4 C135.6,6.4 136.3,6.2 136.9,5.7 C137.2,5.5 137.3,5.4 137.3,5.3 C137.3,5.3 137.3,5.2 137.2,5.1 L137.3,5 L138.1,5.9 L138,6 C137.9,5.9 137.9,5.9 137.8,5.9 C137.8,5.9 137.7,5.9 137.6,6 C137.3,6.2 137.1,6.4 136.9,6.5 C136.7,6.6 136.5,6.7 136.3,6.8 C135.9,6.9 135.4,7 134.9,7 C133.9,7 133.1,6.7 132.4,6.2 C131.7,5.6 131.4,4.9 131.4,3.9 C131.4,3.2 131.6,2.6 132,2 C132.7,1.2 133.6,0.8 134.9,0.8 C135.8,0.8 136.6,1 137.4,1.5 C137.5,1.5 137.5,1.5 137.5,1.5 C137.5,1.5 137.6,1.4 137.7,1.3 L138.1,1.5 Z" id="XMLID_63_"></path>
                <path d="M140.3,4.2 L140.3,6.4 L144.1,6.4 C144.2,6.4 144.3,6.4 144.4,6.3 C144.5,6.3 144.5,6.2 144.5,6.1 L144.6,6.1 L144.6,7.2 L144.5,7.2 C144.5,7.1 144.4,7 144.4,7 C144.4,7 144.3,6.9 144.1,6.9 L139.3,6.9 L139.3,6.8 C139.4,6.8 139.5,6.7 139.5,6.7 C139.5,6.7 139.6,6.6 139.6,6.4 L139.6,1.4 C139.6,1.3 139.6,1.2 139.5,1.1 C139.4,1 139.4,1 139.3,1 L139.3,1 L144.1,1 C144.2,1 144.3,1 144.4,0.9 C144.5,0.8 144.5,0.8 144.5,0.7 L144.6,0.7 L144.6,1.8 L144.5,1.8 C144.5,1.7 144.4,1.6 144.4,1.6 C144.4,1.6 144.3,1.5 144.1,1.5 L140.3,1.5 L140.3,3.6 L142.8,3.6 C142.9,3.6 143,3.6 143.1,3.5 C143.2,3.5 143.2,3.4 143.2,3.3 L143.3,3.3 L143.3,4.4 L143.2,4.4 C143.2,4.3 143.1,4.2 143.1,4.2 C143,4.2 143,4.1 142.8,4.1 L140.3,4.1 L140.3,4.2 Z" id="XMLID_65_"></path>
                <path d="M163.4,1.5 L162.7,2.6 L162.6,2.5 C162.6,2.4 162.6,2.3 162.6,2.3 C162.6,2.2 162.4,2 162,1.8 C161.5,1.5 160.9,1.4 160.3,1.4 C159.5,1.4 158.8,1.6 158.3,2.1 C157.8,2.6 157.5,3.2 157.5,3.9 C157.5,4.6 157.8,5.2 158.3,5.7 C158.8,6.2 159.5,6.4 160.2,6.4 C160.9,6.4 161.6,6.2 162.2,5.7 C162.5,5.5 162.6,5.4 162.6,5.3 C162.6,5.3 162.6,5.2 162.5,5.1 L162.6,5 L163.4,5.9 L163.3,6 C163.2,5.9 163.2,5.9 163.1,5.9 C163.1,5.9 163,5.9 162.9,6 C162.6,6.2 162.4,6.4 162.2,6.5 C162,6.6 161.8,6.7 161.6,6.8 C161.2,6.9 160.7,7 160.2,7 C159.2,7 158.4,6.7 157.7,6.2 C157,5.6 156.7,4.9 156.7,3.9 C156.7,3.2 156.9,2.6 157.3,2 C158,1.2 158.9,0.8 160.2,0.8 C161.1,0.8 161.9,1 162.7,1.5 C162.8,1.5 162.8,1.5 162.8,1.5 C162.8,1.5 162.9,1.4 163,1.3 L163.4,1.5 Z" id="XMLID_67_"></path>
                <path d="M168.9,5.3 L165.7,5.3 L165.2,6.4 C165.2,6.5 165.1,6.6 165.1,6.6 C165.1,6.7 165.2,6.7 165.4,6.8 L165.4,6.9 L164,6.9 L164,6.8 C164.1,6.8 164.2,6.7 164.3,6.7 C164.4,6.7 164.4,6.5 164.5,6.3 L166.7,1.6 C166.8,1.5 166.8,1.4 166.8,1.4 C166.8,1.3 166.7,1.3 166.6,1.2 L166.6,1 L168.1,1 L168.1,1.1 C168,1.1 167.9,1.2 167.9,1.3 C167.9,1.3 167.9,1.4 168,1.5 L170.1,6.1 C170.3,6.4 170.4,6.6 170.4,6.7 C170.4,6.8 170.6,6.8 170.7,6.8 L170.7,6.9 L169.3,6.9 L169.3,6.8 C169.5,6.8 169.6,6.7 169.6,6.6 C169.6,6.6 169.6,6.5 169.5,6.3 L168.9,5.3 Z M168.6,4.7 L167.2,1.7 L165.9,4.7 L168.6,4.7 Z" id="XMLID_69_"></path>
                <path d="M172.2,4.3 L172.2,6.5 C172.2,6.6 172.2,6.7 172.3,6.7 C172.4,6.7 172.4,6.8 172.5,6.8 L172.5,6.9 L171.2,6.9 L171.2,6.8 C171.3,6.8 171.4,6.7 171.4,6.7 C171.4,6.7 171.5,6.6 171.5,6.5 L171.5,1.4 C171.5,1.3 171.5,1.2 171.4,1.2 C171.4,1.2 171.3,1.1 171.2,1.1 L171.2,1 L174.4,1 C174.8,1 175.2,1 175.4,1.1 C175.6,1.2 175.9,1.2 176.1,1.4 C176.3,1.5 176.5,1.7 176.6,1.9 C176.7,2.1 176.8,2.4 176.8,2.7 C176.8,3.1 176.7,3.5 176.4,3.8 C176.2,4 176,4.2 175.7,4.3 C175.4,4.4 175,4.4 174.4,4.4 L172.2,4.4 L172.2,4.3 Z M172.2,3.7 L174.5,3.7 C174.8,3.7 175.1,3.7 175.2,3.7 C175.4,3.7 175.5,3.6 175.6,3.5 C175.9,3.3 176,3 176,2.6 C176,2.2 175.9,1.9 175.6,1.7 C175.5,1.6 175.3,1.6 175.2,1.5 C175.1,1.4 174.8,1.5 174.5,1.5 L172.2,1.5 L172.2,3.7 Z" id="XMLID_72_"></path>
                <path d="M181.5,5.3 L178.3,5.3 L177.8,6.4 C177.8,6.5 177.7,6.6 177.7,6.6 C177.7,6.7 177.8,6.7 178,6.8 L178,6.9 L176.7,6.9 L176.7,6.8 C176.8,6.8 176.9,6.7 177,6.7 C177.1,6.7 177.1,6.5 177.2,6.3 L179.4,1.6 C179.5,1.5 179.5,1.4 179.5,1.4 C179.5,1.3 179.4,1.3 179.3,1.2 L179.3,1 L180.8,1 L180.8,1.1 C180.7,1.1 180.6,1.2 180.6,1.3 C180.6,1.3 180.6,1.4 180.7,1.5 L182.8,6.1 C183,6.4 183.1,6.6 183.1,6.7 C183.1,6.8 183.3,6.8 183.4,6.8 L183.4,6.9 L182,6.9 L182,6.8 C182.2,6.8 182.3,6.7 182.3,6.6 C182.3,6.6 182.3,6.5 182.2,6.3 L181.5,5.3 Z M181.2,4.7 L179.8,1.7 L178.5,4.7 L181.2,4.7 Z" id="XMLID_75_"></path>
                <path d="M188.6,3.9 C189.3,4.1 189.6,4.6 189.6,5.3 C189.6,5.7 189.5,6 189.3,6.2 C189.1,6.5 188.9,6.7 188.6,6.8 C188.3,6.9 187.8,7 187.3,7 L183.8,7 L183.8,6.9 C183.9,6.9 184,6.8 184,6.8 C184,6.8 184.1,6.7 184.1,6.5 L184.1,1.5 C184.1,1.4 184.1,1.3 184,1.2 C184,1.1 183.9,1.1 183.8,1.1 L183.8,1 L187.4,1 C187.8,1 188,1 188.3,1.1 C188.6,1.2 188.7,1.2 188.9,1.4 C189.3,1.7 189.5,2.1 189.5,2.6 C189.5,3.2 189.2,3.6 188.6,3.9 Z M184.8,3.6 L187.1,3.6 C187.4,3.6 187.7,3.6 187.8,3.6 C188,3.6 188.1,3.5 188.3,3.5 C188.5,3.4 188.6,3.3 188.7,3.2 C188.8,3.1 188.8,2.9 188.8,2.7 C188.8,2.4 188.7,2.2 188.5,2 C188.4,1.9 188.2,1.8 188,1.7 C187.8,1.6 187.5,1.6 187,1.6 L184.7,1.6 L184.7,3.6 L184.8,3.6 Z M184.8,6.4 L187.2,6.4 C187.5,6.4 187.8,6.4 188,6.4 C188.2,6.4 188.3,6.3 188.5,6.3 C188.7,6.2 188.8,6.1 188.9,5.9 C189,5.7 189,5.5 189,5.3 C189,5 188.9,4.8 188.7,4.6 C188.6,4.4 188.4,4.3 188.2,4.3 C188,4.2 187.6,4.2 187.2,4.2 L184.8,4.2 L184.8,6.4 Z" id="XMLID_78_"></path>
                <path d="M191.1,6.5 L191.1,1.5 C191.1,1.4 191.1,1.3 191,1.2 C191,1.1 190.9,1.1 190.8,1.1 L190.8,1 L192.1,1 L192.1,1.1 C192,1.1 191.9,1.2 191.9,1.2 C191.9,1.2 191.8,1.3 191.8,1.5 L191.8,6.5 C191.8,6.6 191.8,6.7 191.9,6.8 C191.9,6.9 192,6.9 192.1,6.9 L192.1,7 L190.8,7 L190.8,6.9 C190.9,6.9 191,6.8 191,6.8 C191.1,6.7 191.1,6.6 191.1,6.5 Z" id="XMLID_82_"></path>
                <path d="M194.4,6.4 L198.2,6.4 C198.3,6.4 198.4,6.4 198.5,6.3 C198.6,6.3 198.6,6.2 198.6,6.1 L198.7,6.1 L198.7,7.2 L198.6,7.2 C198.6,7.1 198.5,7 198.5,7 C198.5,7 198.4,6.9 198.2,6.9 L193.4,6.9 L193.4,6.8 C193.5,6.8 193.6,6.7 193.6,6.7 C193.6,6.7 193.7,6.6 193.7,6.4 L193.7,1.4 C193.7,1.3 193.7,1.2 193.6,1.1 C193.5,1 193.5,1 193.4,1 L193.4,1 L194.7,1 L194.7,1.1 C194.6,1.1 194.5,1.2 194.5,1.2 C194.5,1.2 194.4,1.3 194.4,1.5 L194.4,6.4 Z" id="XMLID_84_"></path>
                <path d="M199.8,6.5 L199.8,1.5 C199.8,1.4 199.8,1.3 199.7,1.2 C199.7,1.1 199.6,1.1 199.5,1.1 L199.5,1 L200.8,1 L200.8,1.1 C200.7,1.1 200.6,1.2 200.6,1.2 C200.6,1.2 200.5,1.3 200.5,1.5 L200.5,6.5 C200.5,6.6 200.5,6.7 200.6,6.8 C200.6,6.9 200.7,6.9 200.8,6.9 L200.8,7 L199.5,7 L199.5,6.9 C199.6,6.9 199.7,6.8 199.7,6.8 C199.8,6.7 199.8,6.6 199.8,6.5 Z" id="XMLID_86_"></path>
                <path d="M204.8,1.6 L204.8,6.5 C204.8,6.6 204.8,6.7 204.9,6.8 C204.9,6.9 205,6.9 205.1,6.9 L205.1,7 L203.8,7 L203.8,6.9 C203.9,6.9 204,6.8 204,6.8 C204,6.8 204.1,6.7 204.1,6.5 L204.1,1.6 L202.1,1.6 C202,1.6 201.9,1.6 201.8,1.7 C201.7,1.8 201.7,1.8 201.7,1.9 L201.6,1.9 L201.6,0.8 L201.7,0.8 C201.7,0.9 201.8,1 201.8,1 C201.8,1 201.9,1.1 202.1,1.1 L206.9,1.1 C207,1.1 207.1,1.1 207.2,1 C207.3,0.9 207.3,0.9 207.3,0.8 L207.4,0.8 L207.4,1.9 L207.3,1.9 C207.3,1.8 207.2,1.7 207.2,1.7 C207.2,1.7 207.1,1.6 206.9,1.6 L204.8,1.6 Z" id="XMLID_88_"></path>
                <path d="M211.2,4.3 L211.2,6.4 C211.2,6.5 211.2,6.6 211.3,6.7 C211.3,6.8 211.4,6.8 211.5,6.8 L211.5,6.9 L210.2,6.9 L210.2,6.8 C210.3,6.8 210.4,6.7 210.4,6.7 C210.4,6.7 210.5,6.6 210.5,6.4 L210.5,4.3 L208.6,1.8 C208.4,1.5 208.2,1.3 208.2,1.3 C208.1,1.2 208,1.2 207.9,1.2 L207.9,1 L209.4,1 L209.4,1.1 C209.3,1.1 209.2,1.2 209.2,1.3 C209.2,1.4 209.3,1.5 209.4,1.7 L210.9,3.8 L212.4,1.7 C212.5,1.5 212.6,1.4 212.6,1.3 C212.6,1.2 212.5,1.2 212.4,1.1 L212.4,1 L213.8,1 L213.8,1.1 C213.7,1.1 213.5,1.2 213.4,1.3 C213.2,1.5 213.1,1.7 213,1.8 L211.2,4.3 Z" id="XMLID_90_"></path>
                <path d="M221.5,3.9 C222.2,4.1 222.5,4.6 222.5,5.3 C222.5,5.7 222.4,6 222.2,6.2 C222,6.5 221.8,6.7 221.5,6.8 C221.2,6.9 220.7,7 220.2,7 L216.7,7 L216.7,6.9 C216.8,6.9 216.9,6.8 216.9,6.8 C216.9,6.8 217,6.7 217,6.5 L217,1.5 C217,1.4 217,1.3 216.9,1.2 C216.9,1.1 216.8,1.1 216.7,1.1 L216.7,1 L220.3,1 C220.7,1 220.9,1 221.2,1.1 C221.5,1.2 221.6,1.2 221.8,1.4 C222.2,1.7 222.4,2.1 222.4,2.6 C222.3,3.2 222,3.6 221.5,3.9 Z M217.6,3.6 L219.9,3.6 C220.2,3.6 220.5,3.6 220.6,3.6 C220.8,3.6 220.9,3.5 221.1,3.5 C221.3,3.4 221.4,3.3 221.5,3.2 C221.6,3.1 221.6,2.9 221.6,2.7 C221.6,2.4 221.5,2.2 221.3,2 C221.2,1.9 221,1.8 220.8,1.7 C220.6,1.6 220.3,1.6 219.8,1.6 L217.5,1.6 L217.5,3.6 L217.6,3.6 Z M217.6,6.4 L220,6.4 C220.3,6.4 220.6,6.4 220.8,6.4 C221,6.4 221.1,6.3 221.3,6.3 C221.5,6.2 221.6,6.1 221.7,5.9 C221.8,5.7 221.8,5.5 221.8,5.3 C221.8,5 221.7,4.8 221.5,4.6 C221.4,4.4 221.2,4.3 221,4.3 C220.8,4.2 220.4,4.2 220,4.2 L217.6,4.2 L217.6,6.4 Z" id="XMLID_92_"></path>
                <path d="M224.5,1.5 L224.5,4.8 C224.5,5.2 224.5,5.5 224.6,5.6 C224.6,5.8 224.7,5.9 224.9,6 C225.2,6.3 225.8,6.4 226.7,6.4 C227.6,6.4 228.2,6.2 228.5,5.9 C228.6,5.8 228.7,5.7 228.7,5.5 C228.7,5.3 228.7,5.1 228.7,4.7 L228.7,1.4 C228.7,1.3 228.7,1.2 228.6,1.1 C228.6,1 228.5,1 228.4,1 L228.4,1 L229.6,1 L229.6,1.1 C229.5,1.1 229.4,1.2 229.4,1.2 C229.4,1.3 229.3,1.3 229.3,1.5 L229.3,5 C229.3,5.4 229.3,5.7 229.2,6 C229,6.4 228.8,6.7 228.3,6.9 C227.8,7.1 227.3,7.2 226.6,7.2 C225.5,7.2 224.7,7 224.3,6.6 C224.1,6.4 224,6.2 224,6 C223.9,5.8 223.9,5.5 223.9,5.1 L223.9,1.6 C223.9,1.5 223.9,1.4 223.8,1.3 C223.8,1.2 223.7,1.2 223.6,1.2 L223.6,1 L224.9,1 L224.9,1.1 C224.8,1.1 224.7,1.2 224.7,1.2 C224.5,1.3 224.5,1.4 224.5,1.5 Z" id="XMLID_96_"></path>
                <path d="M231,6.5 L231,1.5 C231,1.4 231,1.3 230.9,1.2 C230.9,1.1 230.8,1.1 230.7,1.1 L230.7,1 L232,1 L232,1.1 C231.9,1.1 231.8,1.2 231.8,1.2 C231.8,1.2 231.7,1.3 231.7,1.5 L231.7,6.5 C231.7,6.6 231.7,6.7 231.8,6.8 C231.8,6.9 231.9,6.9 232,6.9 L232,7 L230.7,7 L230.7,6.9 C230.8,6.9 230.9,6.8 230.9,6.8 C231,6.7 231,6.6 231,6.5 Z" id="XMLID_98_"></path>
                <path d="M234.3,6.4 L238.1,6.4 C238.2,6.4 238.3,6.4 238.4,6.3 C238.5,6.3 238.5,6.2 238.5,6.1 L238.6,6.1 L238.6,7.2 L238.5,7.2 C238.5,7.1 238.4,7 238.4,7 C238.4,7 238.3,6.9 238.1,6.9 L233.3,6.9 L233.3,6.8 C233.4,6.8 233.5,6.7 233.5,6.7 C233.5,6.7 233.6,6.6 233.6,6.4 L233.6,1.4 C233.6,1.3 233.6,1.2 233.5,1.1 C233.4,1 233.4,1 233.3,1 L233.3,1 L234.6,1 L234.6,1.1 C234.5,1.1 234.4,1.2 234.4,1.2 C234.4,1.2 234.3,1.3 234.3,1.5 L234.3,6.4 Z" id="XMLID_100_"></path>
                <path d="M239.7,6.5 L239.7,1.4 C239.7,1.3 239.7,1.2 239.6,1.2 C239.6,1.2 239.5,1.1 239.4,1.1 L239.4,1 L242.6,1 C243.3,1 243.9,1.1 244.2,1.3 C244.7,1.5 245,1.9 245.3,2.5 C245.5,3 245.6,3.5 245.6,4 C245.6,4.7 245.5,5.3 245.2,5.8 C244.9,6.2 244.6,6.6 244.2,6.7 C243.8,6.9 243.3,7 242.6,7 L239.4,7 L239.4,6.9 C239.5,6.9 239.6,6.8 239.6,6.8 C239.6,6.8 239.7,6.6 239.7,6.5 Z M240.4,6.4 L242.6,6.4 C243.2,6.4 243.7,6.3 244,6.1 C244.4,5.9 244.6,5.5 244.8,5 C244.9,4.7 245,4.3 245,3.9 C245,3.2 244.8,2.6 244.5,2.2 C244.3,1.9 244.1,1.8 243.8,1.7 C243.5,1.6 243.1,1.5 242.7,1.5 L240.5,1.5 L240.5,6.4 L240.4,6.4 Z" id="XMLID_102_"></path>
                <path d="M247.1,6.5 L247.1,1.5 C247.1,1.4 247.1,1.3 247,1.2 C247,1.1 246.9,1.1 246.8,1.1 L246.8,1 L248.1,1 L248.1,1.1 C248,1.1 247.9,1.2 247.9,1.2 C247.9,1.2 247.8,1.3 247.8,1.5 L247.8,6.5 C247.8,6.6 247.8,6.7 247.9,6.8 C247.9,6.9 248,6.9 248.1,6.9 L248.1,7 L246.8,7 L246.8,6.9 C246.9,6.9 247,6.8 247,6.8 C247.1,6.7 247.1,6.6 247.1,6.5 Z" id="XMLID_105_"></path>
                <path d="M250.3,1.8 L250.3,6.5 C250.3,6.6 250.3,6.7 250.4,6.8 C250.4,6.9 250.5,6.9 250.6,6.9 L250.6,7 L249.4,7 L249.4,6.9 C249.5,6.9 249.6,6.8 249.6,6.8 C249.6,6.8 249.7,6.7 249.7,6.5 L249.7,1.5 C249.7,1.4 249.7,1.3 249.6,1.2 C249.6,1.1 249.5,1.1 249.4,1.1 L249.4,1 L251.1,1 L251.1,1.1 C251,1.1 250.9,1.2 250.9,1.3 C250.9,1.4 251,1.5 251.1,1.6 L254.7,5.8 L254.7,1.4 C254.7,1.3 254.7,1.2 254.6,1.1 C254.6,1 254.5,1 254.4,1 L254.4,1 L255.6,1 L255.6,1.1 C255.5,1.1 255.4,1.2 255.4,1.2 C255.4,1.3 255.3,1.3 255.3,1.5 L255.3,6.5 C255.3,6.6 255.3,6.7 255.4,6.8 C255.4,6.9 255.5,6.9 255.6,6.9 L255.6,7 L254.2,7 L254.2,6.9 C254.3,6.9 254.4,6.8 254.4,6.7 C254.4,6.6 254.3,6.5 254.2,6.4 L250.3,1.8 Z" id="XMLID_107_"></path>
                <path d="M263.3,1.6 L262.6,2.7 L262.5,2.6 C262.6,2.5 262.6,2.4 262.6,2.4 C262.6,2.3 262.4,2.2 262.1,2 C261.5,1.7 260.9,1.5 260.2,1.5 C259.5,1.5 258.8,1.7 258.3,2.1 C257.7,2.6 257.4,3.2 257.4,4 C257.4,4.8 257.7,5.4 258.2,5.9 C258.7,6.3 259.4,6.5 260.1,6.5 C260.5,6.5 260.9,6.4 261.3,6.3 C261.7,6.2 262,6 262.3,5.8 L262.3,4.7 L261,4.7 C260.9,4.7 260.8,4.7 260.7,4.8 C260.6,4.9 260.6,4.9 260.6,5 L260.5,5 L260.5,3.9 L260.6,3.9 C260.6,4 260.7,4.1 260.7,4.1 C260.7,4.1 260.8,4.2 261,4.2 L263.4,4.2 L263.4,4.3 C263.3,4.3 263.2,4.4 263.2,4.4 C263.2,4.4 263.1,4.5 263.1,4.7 L263.1,5.5 C263.1,5.6 263.1,5.7 263.2,5.8 C263.3,5.9 263.3,5.9 263.4,5.9 L263.4,6 C263.1,6.3 262.8,6.5 262.5,6.7 C261.9,7.1 261.1,7.2 260.3,7.2 C259.3,7.2 258.5,6.9 257.9,6.4 C257.6,6.1 257.4,5.8 257.2,5.4 C257,5 256.9,4.5 256.9,4.1 C256.9,3.4 257.1,2.8 257.5,2.3 C257.9,1.8 258.4,1.5 259,1.2 C259.4,1 259.9,1 260.4,1 C260.8,1 261.2,1.1 261.6,1.2 C262,1.3 262.4,1.5 262.8,1.7 C262.9,1.8 263,1.8 263,1.8 C263,1.8 263.1,1.7 263.2,1.6 L263.3,1.6 Z" id="XMLID_109_"></path>
                <path d="M276.7,4.3 L276.7,6.5 C276.7,6.6 276.7,6.7 276.8,6.8 C276.8,6.9 276.9,6.9 277,6.9 L277,7 L275.7,7 L275.7,6.9 C275.8,6.9 275.9,6.8 275.9,6.8 C275.9,6.8 276,6.7 276,6.5 L276,1.5 C276,1.4 276,1.3 275.9,1.2 C275.9,1.1 275.8,1.1 275.7,1.1 L275.7,1 L279,1 C279.5,1 279.8,1 280.1,1.1 C280.4,1.1 280.6,1.2 280.8,1.4 C281,1.5 281.2,1.7 281.3,1.9 C281.4,2.1 281.5,2.4 281.5,2.7 C281.5,3.2 281.3,3.5 281,3.8 C280.7,4.1 280.3,4.3 279.7,4.3 L281.2,6.7 C281.3,6.8 281.4,6.9 281.6,6.9 L281.6,7 L280.2,7 L280.2,6.9 C280.3,6.9 280.4,6.8 280.4,6.8 C280.4,6.8 280.3,6.7 280.2,6.5 L278.8,4.4 L276.7,4.4 L276.7,4.3 Z M276.7,3.7 L279.1,3.7 C279.4,3.7 279.7,3.7 279.8,3.7 C280,3.7 280.1,3.6 280.2,3.5 C280.5,3.3 280.7,3 280.7,2.6 C280.7,2.2 280.5,1.9 280.2,1.7 C280.1,1.6 279.9,1.6 279.7,1.5 C279.5,1.4 279.3,1.5 278.9,1.5 L276.5,1.5 L276.5,3.7 L276.7,3.7 Z" id="XMLID_111_"></path>
                <path d="M283.7,4.2 L283.7,6.4 L287.5,6.4 C287.6,6.4 287.7,6.4 287.8,6.3 C287.9,6.3 287.9,6.2 287.9,6.1 L288,6.1 L288,7.2 L287.9,7.2 C287.9,7.1 287.8,7 287.8,7 C287.8,7 287.7,6.9 287.5,6.9 L282.7,6.9 L282.7,6.8 C282.8,6.8 282.9,6.7 282.9,6.7 C282.9,6.7 283,6.6 283,6.4 L283,1.4 C283,1.3 283,1.2 282.9,1.1 C282.8,1 282.8,1 282.7,1 L282.7,1 L287.5,1 C287.6,1 287.7,1 287.8,0.9 C287.9,0.8 287.9,0.8 287.9,0.7 L288,0.7 L288,1.8 L287.9,1.8 C287.9,1.7 287.8,1.6 287.8,1.6 C287.8,1.6 287.7,1.5 287.5,1.5 L283.7,1.5 L283.7,3.6 L286.2,3.6 C286.3,3.6 286.4,3.6 286.5,3.5 C286.6,3.5 286.6,3.4 286.6,3.3 L286.7,3.3 L286.7,4.4 L286.6,4.4 C286.6,4.3 286.5,4.2 286.5,4.2 C286.4,4.2 286.4,4.1 286.2,4.1 L283.7,4.1 L283.7,4.2 Z" id="XMLID_114_"></path>
                <path d="M294.8,1.4 L294.2,2.5 L294.1,2.4 C294.1,2.3 294.2,2.2 294.2,2.2 C294.2,2.1 294.1,2 293.9,1.9 C293.3,1.6 292.7,1.5 292,1.5 C291.5,1.5 291,1.6 290.6,1.8 C290.4,1.9 290.3,2 290.1,2.2 C289.9,2.4 289.9,2.5 289.9,2.7 C289.9,2.8 289.9,3 290,3.1 C290.1,3.2 290.2,3.3 290.3,3.4 C290.5,3.5 290.6,3.5 290.9,3.6 C291.1,3.6 291.5,3.6 292,3.7 C292.7,3.7 293.2,3.8 293.4,3.8 C293.7,3.8 293.9,3.9 294.1,4 C294.6,4.3 294.8,4.7 294.8,5.3 C294.8,5.8 294.6,6.3 294.1,6.6 C293.6,7 292.9,7.2 292,7.2 C291.5,7.2 291.1,7.1 290.7,7 C290.3,6.9 289.9,6.7 289.3,6.4 C289.2,6.3 289.1,6.3 289,6.3 C289,6.3 288.9,6.4 288.8,6.5 L288.7,6.4 L289.4,5.3 L289.5,5.4 C289.4,5.5 289.4,5.6 289.4,5.6 C289.4,5.7 289.6,5.8 290,6 C290.3,6.2 290.7,6.3 291,6.4 C291.3,6.5 291.7,6.5 292,6.5 C292.7,6.5 293.3,6.3 293.7,6 C294,5.8 294.1,5.5 294.1,5.2 C294.1,4.8 293.9,4.5 293.4,4.4 C293.3,4.4 293.1,4.3 293,4.3 C292.8,4.3 292.4,4.3 291.7,4.2 C291.2,4.2 290.8,4.1 290.5,4.1 C290.2,4 290,4 289.7,3.8 C289.5,3.7 289.3,3.5 289.2,3.3 C289.1,3.1 289,2.9 289,2.6 C289,2.2 289.2,1.8 289.5,1.5 C289.7,1.3 290.1,1.1 290.5,1 C290.9,0.9 291.4,0.8 291.9,0.8 C292.3,0.8 292.7,0.8 293,0.9 C293.3,1 293.7,1.1 294.2,1.3 C294.3,1.3 294.4,1.4 294.4,1.4 C294.5,1.4 294.5,1.3 294.6,1.2 L294.8,1.4 Z" id="XMLID_116_"></path>
                <path d="M296.2,6.5 L296.2,1.5 C296.2,1.4 296.2,1.3 296.1,1.2 C296.1,1.1 296,1.1 295.9,1.1 L295.9,1 L297.2,1 L297.2,1.1 C297.1,1.1 297,1.2 297,1.2 C297,1.2 296.9,1.3 296.9,1.5 L296.9,6.5 C296.9,6.6 296.9,6.7 297,6.8 C297,6.9 297.1,6.9 297.2,6.9 L297.2,7 L295.9,7 L295.9,6.9 C296,6.9 296.1,6.8 296.1,6.8 C296.2,6.7 296.2,6.6 296.2,6.5 Z" id="XMLID_118_"></path>
                <path d="M299.4,6.4 L303.2,6.4 C303.3,6.4 303.4,6.4 303.5,6.3 C303.6,6.3 303.6,6.2 303.6,6.1 L303.7,6.1 L303.7,7.2 L303.6,7.2 C303.6,7.1 303.5,7 303.5,7 C303.5,7 303.4,6.9 303.2,6.9 L298.4,6.9 L298.4,6.8 C298.5,6.8 298.6,6.7 298.6,6.7 C298.6,6.7 298.7,6.6 298.7,6.4 L298.7,1.4 C298.7,1.3 298.7,1.2 298.6,1.1 C298.5,1 298.5,1 298.4,1 L298.4,1 L299.7,1 L299.7,1.1 C299.6,1.1 299.5,1.2 299.5,1.2 C299.5,1.2 299.4,1.3 299.4,1.5 L299.4,6.4 L299.4,6.4 Z" id="XMLID_120_"></path>
                <path d="M304.9,6.5 L304.9,1.5 C304.9,1.4 304.9,1.3 304.8,1.2 C304.8,1.1 304.7,1.1 304.6,1.1 L304.6,1 L305.9,1 L305.9,1.1 C305.8,1.1 305.7,1.2 305.7,1.2 C305.7,1.2 305.6,1.3 305.6,1.5 L305.6,6.5 C305.6,6.6 305.6,6.7 305.7,6.8 C305.7,6.9 305.8,6.9 305.9,6.9 L305.9,7 L304.6,7 L304.6,6.9 C304.7,6.9 304.8,6.8 304.8,6.8 C304.8,6.7 304.9,6.6 304.9,6.5 Z" id="XMLID_122_"></path>
                <path d="M308.1,4.2 L308.1,6.4 L311.9,6.4 C312,6.4 312.1,6.4 312.2,6.3 C312.3,6.3 312.3,6.2 312.3,6.1 L312.4,6.1 L312.4,7.2 L312.3,7.2 C312.3,7.1 312.2,7 312.2,7 C312.2,7 312.1,6.9 311.9,6.9 L307.1,6.9 L307.1,6.8 C307.2,6.8 307.3,6.7 307.3,6.7 C307.3,6.7 307.4,6.6 307.4,6.4 L307.4,1.4 C307.4,1.3 307.4,1.2 307.3,1.1 C307.2,1 307.2,1 307.1,1 L307.1,1 L311.9,1 C312,1 312.1,1 312.2,0.9 C312.3,0.8 312.3,0.8 312.3,0.7 L312.4,0.7 L312.4,1.8 L312.3,1.8 C312.3,1.7 312.2,1.6 312.2,1.6 C312.2,1.6 312.1,1.5 311.9,1.5 L308.1,1.5 L308.1,3.6 L310.6,3.6 C310.7,3.6 310.8,3.6 310.9,3.5 C311,3.5 311,3.4 311,3.3 L311.1,3.3 L311.1,4.4 L311,4.4 C311,4.3 310.9,4.2 310.9,4.2 C310.8,4.2 310.8,4.1 310.6,4.1 L308.1,4.1 L308.1,4.2 Z" id="XMLID_124_"></path>
                <path d="M314.5,1.8 L314.5,6.5 C314.5,6.6 314.5,6.7 314.6,6.8 C314.6,6.9 314.7,6.9 314.8,6.9 L314.8,7 L313.6,7 L313.6,6.9 C313.7,6.9 313.8,6.8 313.8,6.8 C313.8,6.8 313.9,6.7 313.9,6.5 L313.9,1.5 C313.9,1.4 313.9,1.3 313.8,1.2 C313.8,1.1 313.7,1.1 313.6,1.1 L313.6,1 L315.3,1 L315.3,1.1 C315.2,1.1 315.1,1.2 315.1,1.3 C315.1,1.4 315.2,1.5 315.3,1.6 L318.9,5.8 L318.9,1.4 C318.9,1.3 318.9,1.2 318.8,1.1 C318.8,1 318.7,1 318.6,1 L318.6,1 L319.8,1 L319.8,1.1 C319.7,1.1 319.6,1.2 319.6,1.2 C319.6,1.3 319.5,1.3 319.5,1.5 L319.5,6.5 C319.5,6.6 319.5,6.7 319.6,6.8 C319.6,6.9 319.7,6.9 319.8,6.9 L319.8,7 L318.4,7 L318.4,6.9 C318.5,6.9 318.6,6.8 318.6,6.7 C318.6,6.6 318.5,6.5 318.4,6.4 L314.5,1.8 Z" id="XMLID_126_"></path>
                <path d="M327.5,1.5 L326.8,2.6 L326.7,2.5 C326.7,2.4 326.7,2.3 326.7,2.3 C326.7,2.2 326.5,2 326.1,1.8 C325.6,1.5 325,1.4 324.4,1.4 C323.6,1.4 322.9,1.6 322.4,2.1 C321.9,2.6 321.6,3.2 321.6,3.9 C321.6,4.6 321.9,5.2 322.4,5.7 C322.9,6.2 323.6,6.4 324.3,6.4 C325,6.4 325.7,6.2 326.3,5.7 C326.6,5.5 326.7,5.4 326.7,5.3 C326.7,5.3 326.7,5.2 326.6,5.1 L326.7,5 L327.5,5.9 L327.4,6 C327.3,5.9 327.3,5.9 327.2,5.9 C327.2,5.9 327.1,5.9 327,6 C326.7,6.2 326.5,6.4 326.3,6.5 C326.1,6.6 325.9,6.7 325.7,6.8 C325.3,6.9 324.8,7 324.3,7 C323.3,7 322.5,6.7 321.8,6.2 C321.1,5.6 320.8,4.9 320.8,3.9 C320.8,3.2 321,2.6 321.4,2 C322.1,1.2 323,0.8 324.3,0.8 C325.2,0.8 326,1 326.8,1.5 C326.9,1.5 326.9,1.5 326.9,1.5 C326.9,1.5 327,1.4 327.1,1.3 L327.5,1.5 Z" id="XMLID_128_"></path>
                <path d="M329.8,4.2 L329.8,6.4 L333.6,6.4 C333.7,6.4 333.8,6.4 333.9,6.3 C334,6.3 334,6.2 334,6.1 L334.1,6.1 L334.1,7.2 L334,7.2 C334,7.1 333.9,7 333.9,7 C333.8,7 333.8,6.9 333.6,6.9 L328.8,6.9 L328.8,6.8 C328.9,6.8 329,6.7 329,6.7 C329,6.7 329.1,6.6 329.1,6.4 L329.1,1.4 C329.1,1.3 329.1,1.2 329,1.1 C328.9,1 328.9,1 328.8,1 L328.8,1 L333.6,1 C333.7,1 333.8,1 333.9,0.9 C334,0.8 334,0.8 334,0.7 L334.1,0.7 L334.1,1.8 L334,1.8 C334,1.7 333.9,1.6 333.9,1.6 C333.8,1.6 333.8,1.5 333.6,1.5 L329.8,1.5 L329.8,3.6 L332.3,3.6 C332.4,3.6 332.5,3.6 332.6,3.5 C332.7,3.5 332.7,3.4 332.7,3.3 L332.8,3.3 L332.8,4.4 L332.7,4.4 C332.7,4.3 332.6,4.2 332.6,4.2 C332.5,4.2 332.5,4.1 332.3,4.1 L329.8,4.1 L329.8,4.2 Z" id="XMLID_130_"></path>
                <path d="M349.9,0.9 C351,0.9 351.8,1.2 352.5,1.7 C352.9,2 353.1,2.4 353.3,2.8 C353.4,3.2 353.5,3.6 353.5,4 C353.5,4.6 353.3,5.1 353,5.6 C352.6,6.2 352.1,6.5 351.5,6.8 C351,7 350.5,7.1 349.9,7.1 C348.8,7.1 348,6.8 347.4,6.3 C347,6 346.8,5.6 346.6,5.2 C346.4,4.8 346.4,4.5 346.4,4.1 C346.4,3.5 346.6,3 346.9,2.5 C347.3,2 347.7,1.6 348.4,1.3 C348.8,1 349.3,0.9 349.9,0.9 Z M349.9,1.5 C349,1.5 348.3,1.8 347.8,2.3 C347.3,2.8 347.1,3.3 347.1,4 C347.1,4.7 347.3,5.3 347.8,5.8 C348.3,6.3 349,6.6 349.9,6.6 C350.8,6.6 351.5,6.3 352.1,5.8 C352.6,5.3 352.8,4.8 352.8,4.1 C352.8,3.4 352.6,2.8 352.1,2.3 C351.8,2 351.5,1.8 351.2,1.7 C350.8,1.6 350.4,1.5 349.9,1.5 Z" id="XMLID_132_"></path>
                <path d="M355.7,4.3 L355.7,6.5 C355.7,6.6 355.7,6.7 355.8,6.7 C355.9,6.7 355.9,6.8 356,6.8 L356,6.9 L354.7,6.9 L354.7,6.8 C354.8,6.8 354.9,6.7 354.9,6.7 C354.9,6.7 355,6.6 355,6.5 L355,1.4 C355,1.3 355,1.2 354.9,1.2 C354.9,1.2 354.8,1.1 354.7,1.1 L354.7,1 L357.9,1 C358.3,1 358.7,1 358.9,1.1 C359.1,1.2 359.4,1.2 359.6,1.4 C359.8,1.5 360,1.7 360.1,1.9 C360.2,2.1 360.3,2.4 360.3,2.7 C360.3,3.1 360.2,3.5 359.9,3.8 C359.7,4 359.5,4.2 359.2,4.3 C358.9,4.4 358.5,4.4 357.9,4.4 L355.7,4.4 L355.7,4.3 Z M355.7,3.7 L358,3.7 C358.3,3.7 358.6,3.7 358.7,3.7 C358.9,3.7 359,3.6 359.1,3.5 C359.4,3.3 359.5,3 359.5,2.6 C359.5,2.2 359.4,1.9 359.1,1.7 C359,1.6 358.8,1.6 358.7,1.5 C358.6,1.4 358.3,1.5 358,1.5 L355.7,1.5 L355.7,3.7 Z" id="XMLID_135_"></path>
                <path d="M362.2,4.2 L362.2,6.4 L366,6.4 C366.1,6.4 366.2,6.4 366.3,6.3 C366.4,6.3 366.4,6.2 366.4,6.1 L366.5,6.1 L366.5,7.2 L366.4,7.2 C366.4,7.1 366.3,7 366.3,7 C366.2,7 366.2,6.9 366,6.9 L361.2,6.9 L361.2,6.8 C361.3,6.8 361.4,6.7 361.4,6.7 C361.4,6.7 361.5,6.6 361.5,6.4 L361.5,1.4 C361.5,1.3 361.5,1.2 361.4,1.1 C361.3,1 361.3,1 361.2,1 L361.2,1 L366,1 C366.1,1 366.2,1 366.3,0.9 C366.4,0.8 366.4,0.8 366.4,0.7 L366.5,0.7 L366.5,1.8 L366.4,1.8 C366.4,1.7 366.3,1.6 366.3,1.6 C366.2,1.6 366.2,1.5 366,1.5 L362.2,1.5 L362.2,3.6 L364.7,3.6 C364.8,3.6 364.9,3.6 365,3.5 C365.1,3.5 365.1,3.4 365.1,3.3 L365.2,3.3 L365.2,4.4 L365,4.4 C365,4.3 364.9,4.2 364.9,4.2 C364.8,4.2 364.8,4.1 364.6,4.1 L362.2,4.1 L362.2,4.2 Z" id="XMLID_138_"></path>
                <path d="M368.7,4.3 L368.7,6.5 C368.7,6.6 368.7,6.7 368.8,6.8 C368.8,6.9 368.9,6.9 369,6.9 L369,7 L367.7,7 L367.7,6.9 C367.8,6.9 367.9,6.8 367.9,6.8 C367.9,6.8 368,6.7 368,6.5 L368,1.5 C368,1.4 368,1.3 367.9,1.2 C367.9,1.1 367.8,1.1 367.7,1.1 L367.7,1 L371,1 C371.5,1 371.8,1 372.1,1.1 C372.4,1.1 372.6,1.2 372.8,1.4 C373,1.5 373.2,1.7 373.3,1.9 C373.4,2.1 373.5,2.4 373.5,2.7 C373.5,3.2 373.3,3.5 373,3.8 C372.7,4.1 372.3,4.3 371.7,4.3 L373.2,6.7 C373.3,6.8 373.4,6.9 373.6,6.9 L373.6,7 L372.2,7 L372.2,6.9 C372.3,6.9 372.4,6.8 372.4,6.8 C372.4,6.8 372.3,6.7 372.2,6.5 L370.8,4.4 L368.7,4.4 L368.7,4.3 Z M368.7,3.7 L371.1,3.7 C371.4,3.7 371.7,3.7 371.8,3.7 C372,3.7 372.1,3.6 372.2,3.5 C372.5,3.3 372.7,3 372.7,2.6 C372.7,2.2 372.5,1.9 372.2,1.7 C372.1,1.6 371.9,1.6 371.7,1.5 C371.5,1.5 371.3,1.5 370.9,1.5 L368.5,1.5 L368.5,3.7 L368.7,3.7 Z" id="XMLID_140_"></path>
                <path d="M378.9,5.3 L375.7,5.3 L375.2,6.4 C375.2,6.5 375.1,6.6 375.1,6.6 C375.1,6.7 375.2,6.7 375.4,6.8 L375.4,6.9 L374,6.9 L374,6.8 C374.1,6.8 374.2,6.7 374.3,6.7 C374.4,6.6 374.4,6.5 374.5,6.3 L376.7,1.6 C376.8,1.5 376.8,1.4 376.8,1.4 C376.8,1.3 376.7,1.3 376.6,1.2 L376.6,1 L378.1,1 L378.1,1.1 C378,1.1 377.9,1.2 377.9,1.3 C377.9,1.3 377.9,1.4 378,1.5 L380.1,6.1 C380.3,6.4 380.4,6.6 380.4,6.7 C380.4,6.8 380.6,6.8 380.7,6.8 L380.7,6.9 L379.3,6.9 L379.3,6.8 C379.5,6.8 379.6,6.7 379.6,6.6 C379.6,6.6 379.6,6.5 379.5,6.3 L378.9,5.3 Z M378.6,4.7 L377.2,1.7 L375.9,4.7 L378.6,4.7 Z" id="XMLID_143_"></path>
                <path d="M383.2,1.6 L383.2,6.5 C383.2,6.6 383.2,6.7 383.3,6.8 C383.3,6.9 383.4,6.9 383.5,6.9 L383.5,7 L382.2,7 L382.2,6.9 C382.3,6.9 382.4,6.8 382.4,6.8 C382.4,6.8 382.5,6.7 382.5,6.5 L382.5,1.6 L380.5,1.6 C380.4,1.6 380.3,1.6 380.2,1.7 C380.1,1.7 380.1,1.8 380.1,1.9 L380,1.9 L380,0.8 L380.1,0.8 C380.1,0.9 380.2,1 380.2,1 C380.3,1 380.3,1.1 380.5,1.1 L385.3,1.1 C385.4,1.1 385.5,1.1 385.6,1 C385.7,1 385.7,0.9 385.7,0.8 L385.8,0.8 L385.8,1.9 L385.7,1.9 C385.7,1.8 385.6,1.7 385.6,1.7 C385.5,1.7 385.5,1.6 385.3,1.6 L383.2,1.6 Z" id="XMLID_146_"></path>
                <path d="M386.8,6.5 L386.8,1.5 C386.8,1.4 386.8,1.3 386.7,1.2 C386.7,1.1 386.6,1.1 386.5,1.1 L386.5,1 L387.8,1 L387.8,1.1 C387.7,1.1 387.6,1.2 387.6,1.2 C387.6,1.2 387.5,1.3 387.5,1.5 L387.5,6.5 C387.5,6.6 387.5,6.7 387.6,6.8 C387.6,6.9 387.7,6.9 387.8,6.9 L387.8,7 L386.5,7 L386.5,6.9 C386.6,6.9 386.7,6.8 386.7,6.8 C386.8,6.7 386.8,6.6 386.8,6.5 Z" id="XMLID_148_"></path>
                <path d="M392.5,0.9 C393.6,0.9 394.4,1.2 395.1,1.7 C395.5,2 395.7,2.4 395.9,2.8 C396,3.2 396.1,3.6 396.1,4 C396.1,4.6 395.9,5.1 395.6,5.6 C395.2,6.2 394.7,6.5 394.1,6.8 C393.6,7 393.1,7.1 392.5,7.1 C391.4,7.1 390.6,6.8 390,6.3 C389.6,6 389.4,5.6 389.2,5.2 C389,4.8 389,4.5 389,4.1 C389,3.5 389.2,3 389.5,2.5 C389.9,2 390.3,1.6 391,1.3 C391.4,1 391.9,0.9 392.5,0.9 Z M392.5,1.5 C391.6,1.5 390.9,1.8 390.4,2.3 C389.9,2.8 389.7,3.3 389.7,4 C389.7,4.7 389.9,5.3 390.4,5.8 C390.9,6.3 391.6,6.6 392.5,6.6 C393.4,6.6 394.1,6.3 394.7,5.8 C395.2,5.3 395.4,4.8 395.4,4.1 C395.4,3.4 395.2,2.8 394.7,2.3 C394.4,2 394.1,1.8 393.8,1.7 C393.4,1.6 393,1.5 392.5,1.5 Z" id="XMLID_150_"></path>
                <path d="M398.2,1.8 L398.2,6.5 C398.2,6.6 398.2,6.7 398.3,6.8 C398.3,6.9 398.4,6.9 398.5,6.9 L398.5,7 L397.3,7 L397.3,6.9 C397.4,6.9 397.5,6.8 397.5,6.8 C397.5,6.8 397.6,6.7 397.6,6.5 L397.6,1.5 C397.6,1.4 397.6,1.3 397.5,1.2 C397.5,1.1 397.4,1.1 397.3,1.1 L397.3,1 L399,1 L399,1.1 C398.9,1.1 398.8,1.2 398.8,1.3 C398.8,1.4 398.9,1.5 399,1.6 L402.6,5.8 L402.6,1.4 C402.6,1.3 402.6,1.2 402.5,1.1 C402.5,1 402.4,1 402.3,1 L402.3,1 L403.5,1 L403.5,1.1 C403.4,1.1 403.3,1.2 403.3,1.2 C403.3,1.3 403.2,1.3 403.2,1.5 L403.2,6.5 C403.2,6.6 403.2,6.7 403.3,6.8 C403.3,6.9 403.4,6.9 403.5,6.9 L403.5,7 L402.1,7 L402.1,6.9 C402.2,6.9 402.3,6.8 402.3,6.7 C402.3,6.6 402.2,6.5 402.1,6.4 L398.2,1.8 Z" id="XMLID_153_"></path>
                <path d="M409.3,5.3 L406.1,5.3 L405.6,6.4 C405.6,6.5 405.5,6.6 405.5,6.6 C405.5,6.7 405.6,6.7 405.8,6.8 L405.8,6.9 L404.5,6.9 L404.5,6.8 C404.6,6.8 404.7,6.7 404.8,6.7 C404.9,6.6 404.9,6.5 405,6.3 L407.2,1.6 C407.3,1.5 407.3,1.4 407.3,1.4 C407.3,1.3 407.2,1.3 407.1,1.2 L407.1,1 L408.6,1 L408.6,1.1 C408.5,1.1 408.4,1.2 408.4,1.3 C408.4,1.3 408.4,1.4 408.5,1.5 L410.6,6.1 C410.8,6.4 410.9,6.6 410.9,6.7 C410.9,6.8 411.1,6.8 411.2,6.8 L411.2,6.9 L409.8,6.9 L409.8,6.8 C410,6.8 410.1,6.7 410.1,6.6 C410.1,6.6 410.1,6.5 410,6.3 L409.3,5.3 Z M409,4.7 L407.6,1.7 L406.3,4.7 L409,4.7 Z" id="XMLID_155_"></path>
                <path d="M412.6,6.4 L416.4,6.4 C416.5,6.4 416.6,6.4 416.7,6.3 C416.8,6.3 416.8,6.2 416.8,6.1 L416.9,6.1 L416.9,7.2 L416.8,7.2 C416.8,7.1 416.7,7 416.7,7 C416.6,7 416.6,6.9 416.4,6.9 L411.6,6.9 L411.6,6.8 C411.7,6.8 411.8,6.7 411.8,6.7 C411.8,6.7 411.9,6.6 411.9,6.4 L411.9,1.4 C411.9,1.3 411.9,1.2 411.8,1.1 C411.7,1 411.7,1 411.6,1 L411.6,1 L412.9,1 L412.9,1.1 C412.8,1.1 412.7,1.2 412.7,1.2 C412.7,1.2 412.6,1.3 412.6,1.5 L412.6,6.4 L412.6,6.4 Z" id="XMLID_158_"></path>
                <path d="M425.7,1.4 L425.1,2.5 L425,2.4 C425,2.3 425.1,2.2 425.1,2.2 C425.1,2.1 425,2 424.8,1.9 C424.2,1.6 423.6,1.5 422.9,1.5 C422.4,1.5 421.9,1.6 421.5,1.8 C421.3,1.9 421.2,2 421,2.2 C420.9,2.4 420.8,2.5 420.8,2.7 C420.8,2.8 420.8,3 420.9,3.1 C421,3.2 421.1,3.3 421.2,3.4 C421.4,3.5 421.5,3.5 421.8,3.6 C422,3.6 422.4,3.6 422.9,3.7 C423.6,3.7 424.1,3.8 424.3,3.8 C424.6,3.8 424.8,3.9 425,4 C425.5,4.3 425.7,4.7 425.7,5.3 C425.7,5.8 425.5,6.3 425,6.6 C424.5,7 423.8,7.2 422.9,7.2 C422.4,7.2 422,7.1 421.6,7 C421.2,6.9 420.8,6.7 420.2,6.4 C420.1,6.3 420,6.3 419.9,6.3 C419.9,6.3 419.8,6.4 419.7,6.5 L419.6,6.4 L420.3,5.3 L420.4,5.4 C420.3,5.5 420.3,5.6 420.3,5.6 C420.3,5.7 420.5,5.8 420.9,6 C421.2,6.2 421.6,6.3 421.9,6.4 C422.2,6.5 422.6,6.5 422.9,6.5 C423.6,6.5 424.2,6.3 424.6,6 C424.9,5.8 425,5.5 425,5.2 C425,4.8 424.8,4.5 424.3,4.4 C424.2,4.4 424,4.3 423.9,4.3 C423.7,4.3 423.3,4.3 422.6,4.2 C422.1,4.2 421.7,4.1 421.4,4.1 C421.1,4 420.9,4 420.6,3.8 C420.4,3.7 420.2,3.5 420.1,3.3 C420,3.1 419.9,2.9 419.9,2.6 C419.9,2.2 420.1,1.8 420.4,1.5 C420.6,1.3 421,1.1 421.4,1 C421.8,0.9 422.3,0.8 422.8,0.8 C423.2,0.8 423.6,0.8 423.9,0.9 C424.2,1 424.6,1.1 425.1,1.3 C425.2,1.3 425.3,1.4 425.3,1.4 C425.4,1.4 425.4,1.3 425.5,1.2 L425.7,1.4 Z" id="XMLID_160_"></path>
                <path d="M427.6,1.5 L427.6,4.8 C427.6,5.2 427.6,5.5 427.7,5.6 C427.7,5.8 427.8,5.9 428,6 C428.3,6.3 428.9,6.4 429.8,6.4 C430.7,6.4 431.3,6.2 431.6,5.9 C431.7,5.8 431.8,5.7 431.8,5.5 C431.8,5.3 431.8,5.1 431.8,4.7 L431.8,1.4 C431.8,1.3 431.8,1.2 431.7,1.1 C431.7,1 431.6,1 431.5,1 L431.5,1 L432.7,1 L432.7,1.1 C432.6,1.1 432.5,1.2 432.5,1.2 C432.5,1.3 432.4,1.3 432.4,1.5 L432.4,5 C432.4,5.4 432.4,5.7 432.3,6 C432.1,6.4 431.9,6.7 431.4,6.9 C431,7.1 430.4,7.2 429.7,7.2 C428.6,7.2 427.8,7 427.4,6.6 C427.2,6.4 427.1,6.2 427.1,6 C427,5.8 427,5.5 427,5.1 L427,1.6 C427,1.5 427,1.4 426.9,1.3 C426.9,1.2 426.8,1.2 426.7,1.2 L426.7,1 L428,1 L428,1.1 C427.9,1.1 427.8,1.2 427.8,1.2 C427.6,1.3 427.6,1.4 427.6,1.5 Z" id="XMLID_162_"></path>
                <path d="M434.8,4.3 L434.8,6.5 C434.8,6.6 434.8,6.7 434.9,6.7 C435,6.7 435,6.8 435.1,6.8 L435.1,6.9 L433.8,6.9 L433.8,6.8 C433.9,6.8 434,6.7 434,6.7 C434,6.7 434.1,6.6 434.1,6.5 L434.1,1.4 C434.1,1.3 434.1,1.2 434,1.2 C434,1.2 433.9,1.1 433.8,1.1 L433.8,1 L437,1 C437.4,1 437.8,1 438,1.1 C438.2,1.2 438.5,1.2 438.7,1.4 C438.9,1.5 439.1,1.7 439.2,1.9 C439.3,2.1 439.4,2.4 439.4,2.7 C439.4,3.1 439.3,3.5 439,3.8 C438.8,4 438.6,4.2 438.3,4.3 C438,4.4 437.6,4.4 437,4.4 L434.8,4.4 L434.8,4.3 Z M434.8,3.7 L437.1,3.7 C437.4,3.7 437.7,3.7 437.8,3.7 C438,3.7 438.1,3.6 438.2,3.5 C438.5,3.3 438.6,3 438.6,2.6 C438.6,2.2 438.5,1.9 438.2,1.7 C438.1,1.6 437.9,1.6 437.8,1.5 C437.7,1.4 437.4,1.5 437.1,1.5 L434.8,1.5 L434.8,3.7 Z" id="XMLID_164_"></path>
                <path d="M441.3,4.3 L441.3,6.5 C441.3,6.6 441.3,6.7 441.4,6.7 C441.5,6.7 441.5,6.8 441.6,6.8 L441.6,6.9 L440.3,6.9 L440.3,6.8 C440.4,6.8 440.5,6.7 440.5,6.7 C440.5,6.7 440.6,6.6 440.6,6.5 L440.6,1.4 C440.6,1.3 440.6,1.2 440.5,1.2 C440.5,1.2 440.4,1.1 440.3,1.1 L440.3,1 L443.5,1 C443.9,1 444.3,1 444.5,1.1 C444.7,1.2 445,1.2 445.2,1.4 C445.4,1.5 445.6,1.7 445.7,1.9 C445.8,2.1 445.9,2.4 445.9,2.7 C445.9,3.1 445.8,3.5 445.5,3.8 C445.3,4 445.1,4.2 444.8,4.3 C444.5,4.4 444.1,4.4 443.5,4.4 L441.3,4.4 L441.3,4.3 Z M441.3,3.7 L443.6,3.7 C443.9,3.7 444.2,3.7 444.3,3.7 C444.5,3.7 444.6,3.6 444.7,3.5 C445,3.3 445.1,3 445.1,2.6 C445.1,2.2 445,1.9 444.7,1.7 C444.6,1.6 444.4,1.6 444.3,1.5 C444.2,1.4 443.9,1.5 443.6,1.5 L441.3,1.5 L441.3,3.7 Z" id="XMLID_167_"></path>
                <path d="M450.3,0.9 C451.4,0.9 452.2,1.2 452.9,1.7 C453.3,2 453.5,2.4 453.7,2.8 C453.8,3.2 453.9,3.6 453.9,4 C453.9,4.6 453.7,5.1 453.4,5.6 C453,6.2 452.5,6.5 451.9,6.8 C451.4,7 450.9,7.1 450.3,7.1 C449.2,7.1 448.4,6.8 447.8,6.3 C447.4,6 447.2,5.6 447,5.2 C446.8,4.8 446.8,4.5 446.8,4.1 C446.8,3.5 447,3 447.3,2.5 C447.7,2 448.1,1.6 448.8,1.3 C449.1,1 449.7,0.9 450.3,0.9 Z M450.3,1.5 C449.4,1.5 448.7,1.8 448.2,2.3 C447.7,2.8 447.5,3.3 447.5,4 C447.5,4.7 447.7,5.3 448.2,5.8 C448.7,6.3 449.4,6.6 450.3,6.6 C451.2,6.6 451.9,6.3 452.5,5.8 C453,5.3 453.2,4.8 453.2,4.1 C453.2,3.4 453,2.8 452.5,2.3 C452.2,2 451.9,1.8 451.6,1.7 C451.2,1.6 450.8,1.5 450.3,1.5 Z" id="XMLID_170_"></path>
                <path d="M456,4.3 L456,6.5 C456,6.6 456,6.7 456.1,6.8 C456.1,6.9 456.2,6.9 456.3,6.9 L456.3,7 L455,7 L455,6.9 C455.1,6.9 455.2,6.8 455.2,6.8 C455.2,6.8 455.3,6.7 455.3,6.5 L455.3,1.5 C455.3,1.4 455.3,1.3 455.2,1.2 C455.2,1.1 455.1,1.1 455,1.1 L455,1 L458.3,1 C458.8,1 459.1,1 459.4,1.1 C459.7,1.1 459.9,1.2 460.1,1.4 C460.3,1.5 460.5,1.7 460.6,1.9 C460.7,2.1 460.8,2.4 460.8,2.7 C460.8,3.2 460.6,3.5 460.3,3.8 C460,4.1 459.6,4.3 459,4.3 L460.5,6.7 C460.6,6.8 460.7,6.9 460.9,6.9 L460.9,7 L459.5,7 L459.5,6.9 C459.6,6.9 459.7,6.8 459.7,6.8 C459.7,6.8 459.6,6.7 459.5,6.5 L458.1,4.4 L456,4.4 L456,4.3 Z M456,3.7 L458.4,3.7 C458.7,3.7 459,3.7 459.1,3.7 C459.3,3.7 459.4,3.6 459.5,3.5 C459.8,3.3 460,3 460,2.6 C460,2.2 459.8,1.9 459.5,1.7 C459.4,1.6 459.2,1.6 459,1.5 C458.8,1.5 458.6,1.5 458.2,1.5 L456,1.5 L456,3.7 Z" id="XMLID_173_"></path>
                <path d="M464.8,1.6 L464.8,6.5 C464.8,6.6 464.8,6.7 464.9,6.8 C464.9,6.9 465,6.9 465.1,6.9 L465.1,7 L463.8,7 L463.8,6.9 C463.9,6.9 464,6.8 464,6.8 C464,6.8 464.1,6.7 464.1,6.5 L464.1,1.6 L462.1,1.6 C462,1.6 461.9,1.6 461.8,1.7 C461.7,1.7 461.7,1.8 461.7,1.9 L461.6,1.9 L461.6,0.8 L461.7,0.8 C461.7,0.9 461.8,1 461.8,1 C461.9,1 461.9,1.1 462.1,1.1 L466.9,1.1 C467,1.1 467.1,1.1 467.2,1 C467.3,1 467.3,0.9 467.3,0.8 L467.4,0.8 L467.4,1.9 L467.3,1.9 C467.3,1.8 467.2,1.7 467.2,1.7 C467.1,1.7 467.1,1.6 466.9,1.6 L464.8,1.6 Z" id="XMLID_176_"></path>
                <path d="M480.3,1.6 L480.3,3.6 L482.9,3.6 C483,3.6 483.1,3.6 483.2,3.5 C483.3,3.5 483.3,3.4 483.3,3.3 L483.4,3.3 L483.4,4.4 L483.3,4.4 C483.3,4.3 483.2,4.2 483.2,4.2 C483.1,4.2 483.1,4.1 482.9,4.1 L480.3,4.1 L480.3,6.4 C480.3,6.5 480.3,6.6 480.4,6.7 C480.4,6.8 480.5,6.8 480.6,6.8 L480.6,6.9 L479.3,6.9 L479.3,6.8 C479.4,6.8 479.5,6.7 479.5,6.7 C479.5,6.7 479.6,6.6 479.6,6.4 L479.6,1.4 C479.6,1.3 479.6,1.2 479.5,1.1 C479.5,1 479.4,1 479.3,1 L479.3,1 L484.2,1 C484.3,1 484.4,1 484.5,0.9 C484.6,0.9 484.6,0.8 484.6,0.7 L484.7,0.7 L484.7,1.8 L484.6,1.8 C484.6,1.7 484.5,1.6 484.5,1.6 C484.4,1.6 484.4,1.5 484.2,1.5 L480.3,1.5 L480.3,1.6 Z" id="XMLID_178_"></path>
                <path d="M488.8,0.9 C489.9,0.9 490.7,1.2 491.4,1.7 C491.8,2 492,2.4 492.2,2.8 C492.3,3.2 492.4,3.6 492.4,4 C492.4,4.6 492.2,5.1 491.9,5.6 C491.5,6.2 491,6.5 490.4,6.8 C489.9,7 489.4,7.1 488.8,7.1 C487.7,7.1 486.9,6.8 486.3,6.3 C485.9,6 485.7,5.6 485.5,5.2 C485.3,4.8 485.3,4.5 485.3,4.1 C485.3,3.5 485.5,3 485.8,2.5 C486.2,2 486.6,1.6 487.3,1.3 C487.7,1 488.2,0.9 488.8,0.9 Z M488.8,1.5 C487.9,1.5 487.2,1.8 486.7,2.3 C486.2,2.8 486,3.3 486,4 C486,4.7 486.2,5.3 486.7,5.8 C487.2,6.3 487.9,6.6 488.8,6.6 C489.7,6.6 490.4,6.3 491,5.8 C491.5,5.3 491.7,4.8 491.7,4.1 C491.7,3.4 491.5,2.8 491,2.3 C490.7,2 490.4,1.8 490.1,1.7 C489.7,1.6 489.3,1.5 488.8,1.5 Z" id="XMLID_180_"></path>
                <path d="M494.6,4.3 L494.6,6.5 C494.6,6.6 494.6,6.7 494.7,6.8 C494.7,6.9 494.8,6.9 494.9,6.9 L494.9,7 L493.6,7 L493.6,6.9 C493.7,6.9 493.8,6.8 493.8,6.8 C493.8,6.8 493.9,6.7 493.9,6.5 L493.9,1.5 C493.9,1.4 493.9,1.3 493.8,1.2 C493.8,1.1 493.7,1.1 493.6,1.1 L493.6,1 L496.9,1 C497.4,1 497.7,1 498,1.1 C498.3,1.1 498.5,1.2 498.7,1.4 C498.9,1.5 499.1,1.7 499.2,1.9 C499.3,2.1 499.4,2.4 499.4,2.7 C499.4,3.2 499.2,3.5 498.9,3.8 C498.6,4.1 498.2,4.3 497.6,4.3 L499.1,6.7 C499.2,6.8 499.3,6.9 499.5,6.9 L499.5,7 L498.1,7 L498.1,6.9 C498.2,6.9 498.3,6.8 498.3,6.8 C498.3,6.8 498.2,6.7 498.1,6.5 L496.7,4.4 L494.6,4.4 L494.6,4.3 Z M494.6,3.7 L497,3.7 C497.3,3.7 497.6,3.7 497.7,3.7 C497.9,3.7 498,3.6 498.1,3.5 C498.4,3.3 498.6,3 498.6,2.6 C498.6,2.2 498.4,1.9 498.1,1.7 C498,1.6 497.8,1.6 497.6,1.5 C497.4,1.5 497.2,1.5 496.8,1.5 L494.4,1.5 L494.4,3.7 L494.6,3.7 Z" id="XMLID_183_"></path>
                <path d="M503.3,1.6 L503.3,6.5 C503.3,6.6 503.3,6.7 503.4,6.8 C503.4,6.9 503.5,6.9 503.6,6.9 L503.6,7 L502.3,7 L502.3,6.9 C502.4,6.9 502.5,6.8 502.5,6.8 C502.5,6.8 502.6,6.7 502.6,6.5 L502.6,1.6 L500.6,1.6 C500.5,1.6 500.4,1.6 500.3,1.7 C500.2,1.7 500.2,1.8 500.2,1.9 L500.1,1.9 L500.1,0.8 L500.2,0.8 C500.2,0.9 500.3,1 500.3,1 C500.4,1 500.4,1.1 500.6,1.1 L505.4,1.1 C505.5,1.1 505.6,1.1 505.7,1 C505.8,1 505.8,0.9 505.8,0.8 L505.9,0.8 L505.9,1.9 L505.8,1.9 C505.8,1.8 505.7,1.7 505.7,1.7 C505.6,1.7 505.6,1.6 505.4,1.6 L503.3,1.6 Z" id="XMLID_186_"></path>
                <path d="M506.9,6.5 L506.9,1.5 C506.9,1.4 506.9,1.3 506.8,1.2 C506.8,1.1 506.7,1.1 506.6,1.1 L506.6,1 L507.9,1 L507.9,1.1 C507.8,1.1 507.7,1.2 507.7,1.2 C507.7,1.2 507.6,1.3 507.6,1.5 L507.6,6.5 C507.6,6.6 507.6,6.7 507.7,6.8 C507.7,6.9 507.8,6.9 507.9,6.9 L507.9,7 L506.6,7 L506.6,6.9 C506.7,6.9 506.8,6.8 506.8,6.8 C506.9,6.7 506.9,6.6 506.9,6.5 Z" id="XMLID_188_"></path>
                <path d="M510.2,1.6 L510.2,3.6 L512.8,3.6 C512.9,3.6 513,3.6 513.1,3.5 C513.2,3.5 513.2,3.4 513.2,3.3 L513.3,3.3 L513.3,4.4 L513.2,4.4 C513.2,4.3 513.1,4.2 513.1,4.2 C513,4.2 513,4.1 512.8,4.1 L510.2,4.1 L510.2,6.4 C510.2,6.5 510.2,6.6 510.3,6.7 C510.3,6.8 510.4,6.8 510.5,6.8 L510.5,6.9 L509.2,6.9 L509.2,6.8 C509.3,6.8 509.4,6.7 509.4,6.7 C509.4,6.7 509.5,6.6 509.5,6.4 L509.5,1.4 C509.5,1.3 509.5,1.2 509.4,1.1 C509.4,1 509.3,1 509.2,1 L509.2,1 L514.1,1 C514.2,1 514.3,1 514.4,0.9 C514.5,0.9 514.5,0.8 514.5,0.7 L514.6,0.7 L514.6,1.8 L514.5,1.8 C514.5,1.7 514.4,1.6 514.4,1.6 C514.3,1.6 514.3,1.5 514.1,1.5 L510.2,1.5 L510.2,1.6 Z" id="XMLID_190_"></path>
                <path d="M518.2,4.3 L518.2,6.4 C518.2,6.5 518.2,6.6 518.3,6.7 C518.3,6.8 518.4,6.8 518.5,6.8 L518.5,6.9 L517.2,6.9 L517.2,6.8 C517.3,6.8 517.4,6.7 517.4,6.7 C517.4,6.7 517.5,6.6 517.5,6.4 L517.5,4.3 L515.6,1.8 C515.4,1.5 515.2,1.3 515.2,1.3 C515.1,1.2 515,1.2 514.9,1.2 L514.9,1 L516.4,1 L516.4,1.1 C516.3,1.1 516.2,1.2 516.2,1.3 C516.2,1.4 516.3,1.5 516.4,1.7 L517.9,3.8 L519.4,1.7 C519.5,1.5 519.6,1.4 519.6,1.3 C519.6,1.2 519.5,1.2 519.4,1.1 L519.4,1 L520.8,1 L520.8,1.1 C520.7,1.1 520.5,1.2 520.4,1.3 C520.2,1.5 520.1,1.7 520,1.8 L518.2,4.3 Z" id="XMLID_192_"></path>
                <path d="M535.4,1.6 L535.4,6.5 C535.4,6.6 535.4,6.7 535.5,6.8 C535.5,6.9 535.6,6.9 535.7,6.9 L535.7,7 L534.4,7 L534.4,6.9 C534.5,6.9 534.6,6.8 534.6,6.8 C534.6,6.8 534.7,6.7 534.7,6.5 L534.7,1.6 L532.7,1.6 C532.6,1.6 532.5,1.6 532.4,1.7 C532.3,1.7 532.3,1.8 532.3,1.9 L532.2,1.9 L532.2,0.8 L532.3,0.8 C532.3,0.9 532.4,1 532.4,1 C532.5,1 532.5,1.1 532.7,1.1 L537.5,1.1 C537.6,1.1 537.7,1.1 537.8,1 C537.9,1 537.9,0.9 537.9,0.8 L538,0.8 L538,1.9 L537.9,1.9 C537.9,1.8 537.8,1.7 537.8,1.7 C537.7,1.7 537.7,1.6 537.5,1.6 L535.4,1.6 Z" id="XMLID_194_"></path>
                <path d="M539.6,4.3 L539.6,6.5 C539.6,6.6 539.6,6.7 539.7,6.8 C539.7,6.9 539.8,6.9 539.9,6.9 L539.9,7 L538.6,7 L538.6,6.9 C538.7,6.9 538.8,6.8 538.8,6.8 C538.8,6.8 538.9,6.7 538.9,6.5 L538.9,1.5 C538.9,1.4 538.9,1.3 538.8,1.2 C538.8,1.1 538.7,1.1 538.6,1.1 L538.6,1 L541.9,1 C542.4,1 542.7,1 543,1.1 C543.3,1.1 543.5,1.2 543.7,1.4 C543.9,1.5 544.1,1.7 544.2,1.9 C544.3,2.1 544.4,2.4 544.4,2.7 C544.4,3.2 544.2,3.5 543.9,3.8 C543.6,4.1 543.2,4.3 542.6,4.3 L544.1,6.7 C544.2,6.8 544.3,6.9 544.5,6.9 L544.5,7 L543.1,7 L543.1,6.9 C543.2,6.9 543.3,6.8 543.3,6.8 C543.3,6.8 543.2,6.7 543.1,6.5 L541.7,4.4 L539.6,4.4 L539.6,4.3 Z M539.6,3.7 L542,3.7 C542.3,3.7 542.6,3.7 542.7,3.7 C542.9,3.7 543,3.6 543.1,3.5 C543.4,3.3 543.6,3 543.6,2.6 C543.6,2.2 543.4,1.9 543.1,1.7 C543,1.6 542.8,1.6 542.6,1.5 C542.4,1.5 542.2,1.5 541.8,1.5 L539.4,1.5 L539.4,3.7 L539.6,3.7 Z" id="XMLID_196_"></path>
                <path d="M549.8,5.3 L546.6,5.3 L546.1,6.4 C546.1,6.5 546,6.6 546,6.6 C546,6.7 546.1,6.7 546.3,6.8 L546.3,6.9 L545,6.9 L545,6.8 C545.1,6.8 545.2,6.7 545.3,6.7 C545.4,6.6 545.4,6.5 545.5,6.3 L547.7,1.6 C547.8,1.5 547.8,1.4 547.8,1.4 C547.8,1.3 547.7,1.3 547.6,1.2 L547.6,1 L549.1,1 L549.1,1.1 C549,1.1 548.9,1.2 548.9,1.3 C548.9,1.3 548.9,1.4 549,1.5 L551.1,6.1 C551.3,6.4 551.4,6.6 551.4,6.7 C551.4,6.8 551.6,6.8 551.7,6.8 L551.7,6.9 L550.3,6.9 L550.3,6.8 C550.5,6.8 550.6,6.7 550.6,6.6 C550.6,6.6 550.6,6.5 550.5,6.3 L549.8,5.3 Z M549.6,4.7 L548.2,1.7 L546.9,4.7 L549.6,4.7 Z" id="XMLID_199_"></path>
                <path d="M552.5,6.5 L552.5,1.5 C552.5,1.4 552.5,1.3 552.4,1.2 C552.4,1.1 552.3,1.1 552.2,1.1 L552.2,1 L553.5,1 L553.5,1.1 C553.4,1.1 553.3,1.2 553.3,1.2 C553.3,1.2 553.2,1.3 553.2,1.5 L553.2,6.5 C553.2,6.6 553.2,6.7 553.3,6.8 C553.3,6.9 553.4,6.9 553.5,6.9 L553.5,7 L552.2,7 L552.2,6.9 C552.3,6.9 552.4,6.8 552.4,6.8 C552.5,6.7 552.5,6.6 552.5,6.5 Z" id="XMLID_202_"></path>
                <path d="M555.7,1.8 L555.7,6.5 C555.7,6.6 555.7,6.7 555.8,6.8 C555.8,6.9 555.9,6.9 556,6.9 L556,7 L554.8,7 L554.8,6.9 C554.9,6.9 555,6.8 555,6.8 C555,6.8 555.1,6.7 555.1,6.5 L555.1,1.5 C555.1,1.4 555.1,1.3 555,1.2 C555,1.1 554.9,1.1 554.8,1.1 L554.8,1 L556.5,1 L556.5,1.1 C556.4,1.1 556.3,1.2 556.3,1.3 C556.3,1.4 556.4,1.5 556.5,1.6 L560.1,5.8 L560.1,1.4 C560.1,1.3 560.1,1.2 560,1.1 C560,1 559.9,1 559.8,1 L559.8,1 L561,1 L561,1.1 C560.9,1.1 560.8,1.2 560.8,1.2 C560.8,1.3 560.7,1.3 560.7,1.5 L560.7,6.5 C560.7,6.6 560.7,6.7 560.8,6.8 C560.8,6.9 560.9,6.9 561,6.9 L561,7 L559.6,7 L559.6,6.9 C559.7,6.9 559.8,6.8 559.8,6.7 C559.8,6.6 559.7,6.5 559.6,6.4 L555.7,1.8 Z" id="XMLID_204_"></path>
                <path d="M562.6,6.5 L562.6,1.5 C562.6,1.4 562.6,1.3 562.5,1.2 C562.5,1.1 562.4,1.1 562.3,1.1 L562.3,1 L563.6,1 L563.6,1.1 C563.5,1.1 563.4,1.2 563.4,1.2 C563.4,1.2 563.3,1.3 563.3,1.5 L563.3,6.5 C563.3,6.6 563.3,6.7 563.4,6.8 C563.4,6.9 563.5,6.9 563.6,6.9 L563.6,7 L562.3,7 L562.3,6.9 C562.4,6.9 562.5,6.8 562.5,6.8 C562.6,6.7 562.6,6.6 562.6,6.5 Z" id="XMLID_206_"></path>
                <path d="M565.9,1.8 L565.9,6.5 C565.9,6.6 565.9,6.7 566,6.8 C566,6.9 566.1,6.9 566.2,6.9 L566.2,7 L565,7 L565,6.9 C565.1,6.9 565.2,6.8 565.2,6.8 C565.2,6.8 565.3,6.7 565.3,6.5 L565.3,1.5 C565.3,1.4 565.3,1.3 565.2,1.2 C565.2,1.1 565.1,1.1 565,1.1 L565,1 L566.7,1 L566.7,1.1 C566.6,1.1 566.5,1.2 566.5,1.3 C566.5,1.4 566.6,1.5 566.7,1.6 L570.3,5.8 L570.3,1.4 C570.3,1.3 570.3,1.2 570.2,1.1 C570.2,1 570.1,1 570,1 L570,1 L571.2,1 L571.2,1.1 C571.1,1.1 571,1.2 571,1.2 C571,1.3 570.9,1.3 570.9,1.5 L570.9,6.5 C570.9,6.6 570.9,6.7 571,6.8 C571,6.9 571.1,6.9 571.2,6.9 L571.2,7 L569.8,7 L569.8,6.9 C569.9,6.9 570,6.8 570,6.7 C570,6.6 569.9,6.5 569.8,6.4 L565.9,1.8 Z" id="XMLID_208_"></path>
                <path d="M578.8,1.6 L578.1,2.7 L578,2.6 C578.1,2.5 578.1,2.4 578.1,2.4 C578.1,2.3 577.9,2.2 577.6,2 C577,1.7 576.4,1.5 575.7,1.5 C575,1.5 574.3,1.7 573.8,2.1 C573.2,2.6 572.9,3.2 572.9,4 C572.9,4.8 573.2,5.4 573.7,5.9 C574.2,6.3 574.9,6.5 575.6,6.5 C576,6.5 576.4,6.4 576.8,6.3 C577.2,6.2 577.5,6 577.8,5.8 L577.8,4.7 L576.4,4.7 C576.3,4.7 576.2,4.7 576.1,4.8 C576,4.8 576,4.9 576,5 L576,5 L576,3.9 L576.1,3.9 C576.1,4 576.2,4.1 576.2,4.1 C576.3,4.1 576.3,4.2 576.5,4.2 L578.9,4.2 L578.9,4.3 C578.8,4.3 578.7,4.4 578.7,4.4 C578.7,4.4 578.6,4.5 578.6,4.7 L578.6,5.5 C578.6,5.6 578.6,5.7 578.7,5.8 C578.8,5.9 578.8,5.9 578.9,5.9 L578.9,6 C578.6,6.3 578.3,6.5 578,6.7 C577.4,7.1 576.6,7.2 575.8,7.2 C574.8,7.2 574,6.9 573.4,6.4 C573.1,6.1 572.9,5.8 572.7,5.4 C572.5,5 572.4,4.5 572.4,4.1 C572.4,3.4 572.6,2.8 573,2.3 C573.4,1.8 573.9,1.5 574.5,1.2 C574.9,1 575.4,1 575.9,1 C576.3,1 576.7,1.1 577.1,1.2 C577.5,1.3 577.9,1.5 578.3,1.7 C578.4,1.8 578.5,1.8 578.5,1.8 C578.5,1.8 578.6,1.7 578.7,1.6 L578.8,1.6 Z" id="XMLID_210_"></path>
            </g>
            <path d="M46,138 L622,138" id="XMLID_1_" stroke="#006B45" stroke-width="2"></path>
            <circle id="XMLID_2_" fill="#006B45" fill-rule="nonzero" cx="111.6" cy="127.1" r="2"></circle>
            <circle id="XMLID_212_" fill="#006B45" fill-rule="nonzero" cx="195.6" cy="127.1" r="2"></circle>
            <circle id="XMLID_213_" fill="#006B45" fill-rule="nonzero" cx="314.6" cy="127.1" r="2"></circle>
            <circle id="XMLID_214_" fill="#006B45" fill-rule="nonzero" cx="385.6" cy="127.1" r="2"></circle>
            <circle id="XMLID_215_" fill="#006B45" fill-rule="nonzero" cx="517.6" cy="127.1" r="2"></circle>
            <circle id="XMLID_216_" fill="#006B45" fill-rule="nonzero" cx="570.6" cy="127.1" r="2"></circle>
        </g>
    </g>
</svg>
